<svg version="1.1" xmlns="http://www.w3.org/2000/svg" xmlns:xlink="http://www.w3.org/1999/xlink" x="0px" y="0px" viewBox="0 0 1000 1000" enable-background="new 0 0 1000 1000" xml:space="preserve" style="fill: #cccccc">
<g><path d="M761.4,990H257c-44.7,0-81.2-35.7-82.7-80l-66-742.6c-2.4-27.3,17.7-51.4,45-53.8c27-2.2,51.4,17.7,53.8,45l65.1,732.2h473.9l46.7-550c2.5-27.3,27.2-47.2,53.9-45c27.3,2.5,47.4,26.6,45,53.9L844,910C842.6,954.4,806.1,990,761.4,990z"/><path d="M930,191.9H70c-27.4,0-49.6-22.2-49.6-49.6c0-27.4,22.2-49.6,49.6-49.6H930c27.4,0,49.6,22.2,49.6,49.6C979.7,169.7,957.4,191.9,930,191.9z"/><path d="M667.5,96.8c0,48-71.3,86.8-159.2,86.8c-88,0-159.2-38.9-159.2-86.8c0-48,71.3-86.8,159.2-86.8C596.2,10,667.5,48.9,667.5,96.8z"/><path d="M349,828.7c-17.2,0-31.7-13.3-33-30.7L283,334.5c-1.3-18.2,12.4-34,30.6-35.4c18.6-1.2,34.1,12.4,35.3,30.6l33.1,463.5c1.3,18.2-12.4,34.1-30.6,35.3C350.6,828.7,349.8,828.7,349,828.7z"/><path d="M508.3,828.7c-18.3,0-33.1-14.8-33.1-33.1V332.2c0-18.3,14.8-33.1,33.1-33.1s33.1,14.8,33.1,33.1v463.5C541.3,813.9,526.6,828.7,508.3,828.7z"/><path d="M667.5,828.7c-0.8,0-1.6,0-2.4-0.1c-18.2-1.3-31.9-17.1-30.6-35.3l33.1-463.5c1.3-18.2,16.5-31.8,35.3-30.6c18.2,1.3,31.9,17.1,30.6,35.4L700.4,798C699.2,815.4,684.7,828.7,667.5,828.7z"/></g>
</svg>