<svg xmlns="http://www.w3.org/2000/svg" xmlns:xlink="http://www.w3.org/1999/xlink" version="1.1" x="0px" y="0px" viewBox="0 0 100 100" xml:space="preserve" style="fill: #cccccc;"><path d="M50,5C25.187,5,5,25.187,5,50c0,24.813,20.187,45,45,45c24.813,0,45-20.187,45-45C95,25.187,74.813,5,50,5z M50,27.5  c4.136,0,7.5,3.364,7.5,7.5s-3.364,7.5-7.5,7.5s-7.5-3.364-7.5-7.5S45.864,27.5,50,27.5z M35,57.5c-4.136,0-7.5-3.364-7.5-7.5  s3.364-7.5,7.5-7.5s7.5,3.364,7.5,7.5S39.136,57.5,35,57.5z M50,72.5c-4.136,0-7.5-3.364-7.5-7.5s3.364-7.5,7.5-7.5  s7.5,3.364,7.5,7.5S54.136,72.5,50,72.5z M65,57.5c-4.136,0-7.5-3.364-7.5-7.5s3.364-7.5,7.5-7.5s7.5,3.364,7.5,7.5  S69.136,57.5,65,57.5z"/></svg>