<svg xmlns="http://www.w3.org/2000/svg" xmlns:xlink="http://www.w3.org/1999/xlink" version="1.1" x="0px" y="0px" viewBox="0 0 24 24" style="fill: #cccccc; enable-background:new 0 0 24 24;" xml:space="preserve"><g><path d="M12,0C5.373,0,0,5.373,0,12c0,6.628,5.373,12,12,12s12-5.372,12-12C24,5.373,18.627,0,12,0z M20.899,7.455   c0.091,0.174,0.177,0.352,0.257,0.532l-4.611,4.61V3.101c0.462,0.236,0.902,0.509,1.318,0.81C17.877,3.92,17.889,3.93,17.9,3.94   c0.826,0.604,1.555,1.333,2.159,2.158c0.01,0.014,0.021,0.026,0.03,0.04C20.392,6.554,20.663,6.993,20.899,7.455z M12.914,2.046   c0.117,0.011,0.232,0.027,0.348,0.042c0.177,0.023,0.352,0.049,0.525,0.08c0.145,0.027,0.287,0.055,0.429,0.087   c0.136,0.03,0.269,0.067,0.401,0.102C14.773,2.4,14.93,2.44,15.082,2.489c0.188,0.062,0.371,0.132,0.555,0.203v6.516L8.918,2.489   C9.07,2.44,9.227,2.4,9.383,2.357c0.133-0.035,0.266-0.072,0.401-0.102c0.142-0.032,0.284-0.06,0.429-0.087   c0.174-0.031,0.349-0.057,0.525-0.08c0.115-0.015,0.231-0.031,0.348-0.042C11.387,2.019,11.691,2,12,2   C12.309,2,12.613,2.019,12.914,2.046z M20.09,17.862c-0.01,0.014-0.021,0.026-0.03,0.04c-0.604,0.824-1.333,1.553-2.157,2.157   c-0.014,0.01-0.025,0.02-0.04,0.03c-0.417,0.302-0.856,0.574-1.317,0.811c-0.174,0.09-0.351,0.176-0.532,0.256l-4.61-4.611h9.497   C20.663,17.007,20.392,17.446,20.09,17.862z M3.102,7.455c0.237-0.464,0.51-0.906,0.814-1.324c0.006-0.008,0.012-0.017,0.019-0.025   c0.606-0.829,1.337-1.561,2.166-2.167C6.112,3.93,6.125,3.92,6.136,3.912c0.417-0.303,0.857-0.575,1.319-0.812   c0.174-0.089,0.351-0.177,0.532-0.257l4.61,4.611H3.102z M2.088,10.736c0.023-0.175,0.049-0.35,0.08-0.522   c0.026-0.144,0.055-0.289,0.087-0.432c0.03-0.135,0.067-0.268,0.102-0.4C2.4,9.227,2.439,9.07,2.489,8.918l0,0   c0.015-0.045,0.032-0.087,0.048-0.131c0.05-0.142,0.101-0.283,0.155-0.424h6.517l-6.72,6.719c-0.05-0.152-0.089-0.309-0.132-0.465   c-0.035-0.133-0.072-0.266-0.103-0.401c-0.031-0.142-0.059-0.284-0.086-0.428c-0.031-0.175-0.057-0.35-0.08-0.527   c-0.015-0.114-0.031-0.229-0.041-0.346C2.018,12.613,2,12.309,2,12s0.018-0.613,0.046-0.914   C2.057,10.969,2.073,10.852,2.088,10.736z M2.844,16.014l4.611-4.611V20.9c-0.462-0.236-0.902-0.509-1.318-0.812   C6.125,20.08,6.111,20.07,6.1,20.06c-0.828-0.607-1.559-1.338-2.165-2.166c-0.007-0.009-0.013-0.017-0.019-0.025   c-0.305-0.418-0.577-0.86-0.814-1.324c-0.071-0.135-0.136-0.272-0.199-0.411C2.883,16.094,2.861,16.055,2.844,16.014L2.844,16.014z    M11.086,21.954c-0.117-0.011-0.232-0.027-0.348-0.042c-0.177-0.023-0.352-0.049-0.525-0.08c-0.144-0.027-0.287-0.055-0.429-0.087   c-0.136-0.03-0.269-0.067-0.401-0.103C9.227,21.6,9.07,21.56,8.918,21.511c-0.025-0.009-0.049-0.018-0.074-0.026   c-0.162-0.056-0.321-0.114-0.481-0.176v-0.001v-6.516l6.719,6.719c-0.152,0.05-0.309,0.089-0.465,0.132   c-0.133,0.035-0.266,0.072-0.401,0.103c-0.142,0.032-0.284,0.06-0.429,0.087c-0.174,0.031-0.349,0.057-0.525,0.08   c-0.115,0.015-0.23,0.031-0.348,0.042C12.613,21.981,12.309,22,12,22C11.691,22,11.387,21.981,11.086,21.954z M21.643,9.383   c0.035,0.133,0.072,0.266,0.102,0.4c0.032,0.143,0.061,0.287,0.087,0.432c0.031,0.172,0.057,0.347,0.08,0.522   c0.015,0.116,0.031,0.232,0.042,0.35C21.982,11.387,22,11.691,22,12s-0.018,0.613-0.047,0.915c-0.01,0.116-0.026,0.231-0.041,0.346   c-0.023,0.178-0.049,0.353-0.08,0.527c-0.027,0.143-0.055,0.286-0.086,0.428c-0.031,0.136-0.068,0.269-0.104,0.401   c-0.043,0.156-0.082,0.313-0.132,0.465c-0.061,0.189-0.132,0.371-0.203,0.555h-6.515l6.718-6.719l0,0l0,0   C21.56,9.07,21.6,9.227,21.643,9.383z"/></g></svg>