<svg xmlns="http://www.w3.org/2000/svg" xmlns:xlink="http://www.w3.org/1999/xlink" xml:space="preserve" version="1.1" style="fill: #cccccc;" viewBox="0 0 5000 5000" x="0px" y="0px" fill-rule="evenodd" clip-rule="evenodd"><g><path class="fil0 str0" d="M4149 1629c45,-2 90,-5 136,-3 178,10 269,70 389,196 115,129 154,263 152,434 -8,183 -72,274 -204,393 -243,208 -474,223 -780,202 -99,-6 -186,-17 -255,-29 -69,-12 -119,-24 -170,-36"/><path class="fil0 str0" d="M4149 1629c23,-39 46,-77 66,-119 72,-162 61,-271 4,-435 -62,-162 -163,-258 -315,-335 -166,-78 -276,-62 -443,0 -297,120 -416,319 -538,600 -40,91 -70,173 -91,240 -22,66 -34,117 -46,168"/><path class="fil0 str0" d="M3535 4149c3,45 6,90 4,136 -11,177 -71,269 -196,389 -130,115 -263,154 -434,152 -184,-8 -274,-72 -394,-204 -208,-243 -222,-474 -202,-780 7,-99 18,-186 30,-255 11,-69 24,-119 36,-170"/><path class="fil0 str0" d="M3535 4149c39,23 78,46 120,66 162,72 271,61 435,4 162,-62 258,-163 335,-315 77,-167 62,-276 0,-443 -121,-297 -319,-416 -600,-538 -91,-40 -174,-70 -240,-91 -67,-22 -117,-34 -168,-46"/><path class="fil0 str0" d="M1016 3535c-45,3 -91,6 -137,4 -177,-11 -268,-71 -388,-196 -115,-130 -154,-263 -152,-434 7,-184 72,-274 204,-394 243,-208 473,-222 780,-202 99,7 186,18 254,30 69,11 120,24 171,36"/><path class="fil0 str0" d="M1016 3535c-23,39 -47,78 -66,120 -72,162 -61,271 -4,435 62,162 162,258 315,335 166,77 276,62 443,0 297,-121 416,-319 538,-600 39,-91 70,-174 91,-240 21,-67 34,-117 46,-168"/><path class="fil0 str0" d="M1629 1016c-2,-45 -5,-91 -3,-137 10,-177 70,-268 196,-388 129,-115 263,-154 434,-152 183,7 274,72 393,204 208,243 223,473 202,780 -6,99 -17,186 -29,254 -12,69 -24,120 -36,171"/><path class="fil0 str0" d="M1629 1016c-38,-23 -77,-47 -119,-66 -162,-72 -271,-61 -435,-4 -162,61 -258,162 -335,315 -78,166 -62,276 0,443 120,297 319,416 600,538 91,39 173,70 240,91 66,21 117,34 168,46"/><path class="fil1 str1" d="M1629 1016c-38,-23 -77,-47 -119,-66 -162,-72 -271,-61 -435,-4 -162,62 -258,162 -335,315 -78,166 -62,276 0,443 120,297 319,416 600,538 91,40 173,70 240,91 66,21 117,34 168,46 -51,-12 -102,-25 -170,-36 -69,-12 -156,-23 -255,-30 -307,-20 -537,-6 -780,202 -132,120 -197,210 -204,394 -2,171 37,304 152,434 120,125 211,185 388,196 46,2 92,-1 137,-4 -23,39 -47,78 -66,120 -72,162 -61,271 -4,435 62,162 162,258 315,335 166,77 276,62 443,0 297,-121 416,-319 538,-600 40,-91 70,-173 91,-240 21,-67 34,-117 46,-168 -12,51 -25,101 -36,170 -12,69 -23,156 -30,255 -20,306 -6,537 202,780 120,132 210,196 394,204 171,2 304,-37 434,-152 125,-120 185,-211 196,-389 2,-46 -1,-91 -4,-136 39,23 78,46 120,66 162,72 271,61 435,4 162,-62 258,-163 335,-315 77,-166 62,-276 0,-443 -121,-297 -319,-416 -600,-538 -91,-40 -173,-70 -240,-91 -67,-22 -117,-34 -168,-46 51,12 101,24 170,36 69,12 156,23 255,29 306,21 537,7 780,-201 132,-120 196,-211 204,-394 2,-171 -37,-305 -152,-434 -120,-126 -211,-186 -389,-196 -46,-2 -91,1 -136,3 23,-38 46,-77 66,-119 72,-162 61,-271 4,-435 -62,-162 -163,-258 -315,-335 -166,-78 -276,-62 -443,0 -297,120 -416,319 -538,600 -40,91 -70,173 -91,240 -22,66 -34,117 -46,168 12,-51 24,-102 36,-170 12,-69 23,-156 29,-255 21,-307 7,-537 -201,-780 -120,-132 -211,-197 -394,-204 -171,-2 -305,37 -434,152 -126,120 -186,211 -196,388 -2,46 1,92 3,137z"/></g></svg>