<svg xmlns="http://www.w3.org/2000/svg" xmlns:xlink="http://www.w3.org/1999/xlink" version="1.1" x="0px" y="0px" viewBox="0 0 100 125" enable-background="new 0 0 100 100" style="fill: #cccccc" xml:space="preserve"><path d="M48.6,52.4"/><path d="M48.6,52.4"/><path d="M48.6,52.4"/><path d="M48.6,52.4"/><path d="M48.6,52.4"/><path d="M48.6,52.4"/><path d="M48.6,52.4"/><path d="M48.6,52.4"/><path d="M13.4,66.9c0.4,1.1,1.4,1.6,2.6,1.6h69.2c1.1,0,2.1-0.5,2.6-1.6c0.4-1.1,0.1-2.2-0.7-2.9L52.4,32.2  c-0.5-0.5-1.2-0.7-1.9-0.7c-0.7,0-1.3,0.3-1.9,0.7L14.1,64C13.3,64.7,13,65.9,13.4,66.9z"/></svg>