<svg xmlns="http://www.w3.org/2000/svg" viewBox="0 0 73 73" x="0px" y="0px"><path fill="#cccccc" fill-rule="evenodd" d="M464,79 L479.997981,79 C482.206309,79 483.996513,77.1996477 483.996513,74.9904421 L483.996513,61.0095579 C483.996513,58.7951402 482.204358,57 479.997981,57 L464,57 L464,79 Z M471.12265,71.705838 C470.731391,72.0970964 470.100716,72.100776 469.700482,71.7005424 L468.299518,70.2995785 C467.905335,69.9053954 467.898559,69.2730745 468.29156,68.8800737 L472.585786,64.5858469 C473.366835,63.8047983 474.633165,63.8047983 475.414214,64.5858469 L479.70844,68.8800737 C480.098228,69.2698615 480.100716,69.8993449 479.700482,70.2995785 L478.299518,71.7005424 C477.905335,72.0947255 477.267572,72.0960594 476.87735,71.705838 L474,68.8284876 L471.12265,71.705838 Z M416,74.9904421 C416,77.2048598 417.793091,79 420.00181,79 L460,79 L460,57 L420.00181,57 C417.791671,57 416,58.8003523 416,61.0095579 L416,74.9904421 Z M420,68.9906311 C420,69.5480902 420.447469,70 421.000695,70 L442.999305,70 C443.551974,70 444,69.5566468 444,68.9906311 L444,67.0093689 C444,66.4519098 443.552531,66 442.999305,66 L421.000695,66 C420.448026,66 420,66.4433532 420,67.0093689 L420,68.9906311 Z M460,97 C461.104569,97 462,96.1045695 462,95 L462,89 C462,87.8954305 461.104569,87 460,87 L422,87 C420.895431,87 420,87.8954305 420,89 L420,95 C420,96.1045695 420.895431,97 422,97 L460,97 Z M452,115 C453.104569,115 454,114.104569 454,113 L454,107 C454,105.895431 453.104569,105 452,105 L422,105 C420.895431,105 420,105.895431 420,107 L420,113 C420,114.104569 420.895431,115 422,115 L452,115 Z" transform="translate(-416 -57)"/></svg>