<svg xmlns="http://www.w3.org/2000/svg" xmlns:xlink="http://www.w3.org/1999/xlink" version="1.1" width="356.218" height="356.218" style="enable-background:new 0 0 356.218 356.218; fill: #f44336" xml:space="preserve"><rect id="backgroundrect" width="100%" height="100%" x="0" y="0" fill="none" stroke="none"/>
















<g class="currentLayer" style=""><title>Layer 1</title><g id="svg_1" class="selected" fill="#cccccc" fill-opacity="1">
	<path d="M350.676,261.501c7.388,7.389,7.388,19.365,0.001,26.754l-62.421,62.421c-7.39,7.389-19.366,7.387-26.755,0l-83.392-83.394   l-83.395,83.394c-7.386,7.388-19.364,7.387-26.752,0L5.541,288.254c-7.388-7.388-7.387-19.364,0.001-26.75l83.395-83.395   L5.543,94.715c-7.387-7.387-7.387-19.365-0.001-26.751L67.965,5.542c7.387-7.388,19.365-7.387,26.75,0l83.395,83.395l83.393-83.395   c7.388-7.387,19.364-7.388,26.753,0l62.422,62.421c7.387,7.388,7.388,19.366,0,26.753l-83.395,83.393L350.676,261.501z" id="svg_2" fill="#cccccc" fill-opacity="1"/>
</g><g id="svg_3">
</g><g id="svg_4">
</g><g id="svg_5">
</g><g id="svg_6">
</g><g id="svg_7">
</g><g id="svg_8">
</g><g id="svg_9">
</g><g id="svg_10">
</g><g id="svg_11">
</g><g id="svg_12">
</g><g id="svg_13">
</g><g id="svg_14">
</g><g id="svg_15">
</g><g id="svg_16">
</g><g id="svg_17">
</g></g></svg>