<svg xmlns="http://www.w3.org/2000/svg" xmlns:xlink="http://www.w3.org/1999/xlink" version="1.1" style="" xml:space="preserve" width="299.80346757080133" height="298.17919016513724"><rect id="backgroundrect" width="100%" height="100%" x="0" y="0" fill="none" stroke="none" class="" style=""/>
















<g class="currentLayer" style=""><title>Layer 1</title><path d="M288.80225466330296,18.472819698531598 C288.76524722370937,8.288335465878465 279.6018833765127,0 268.3773660458641,0 c-4.769132650235452,0 -9.259904993962559,1.4952654626880477 -12.98478424001353,4.32485783532864 L78.94432786181542,138.29303528786662 c0,0 0,0 0,0 l-48.73075284920071,36.99977327389241 c-8.56480873724808,6.501917530514369 -13.279234737649523,16.048499863234046 -12.934904647517813,26.190554841075095 l2.6629266316260716,78.24100895124143 c0.34272107101894456,10.070364167986138 9.30817556734551,17.957816329777984 20.412016464536755,17.959279407530126 c0,0 0,0 0.001609019112764998,0 c4.770741669348217,0 9.261514013075324,-1.4938023849359068 12.986393259126293,-4.321931679824358 l96.30944801366168,-73.12316297425238 l0.001609019112764998,0 l126.48981951179474,-96.03788672828391 c8.267140201386557,-6.276603556684663 12.988002278239057,-15.492530317420488 12.95260385775823,-25.284909712499847 L288.80225466330296,18.472819698531598 zM265.8270707521316,112.97008555381109 l-117.63860537247447,89.31650753494839 L95.43194671031833,144.83445591768876 l170.27283858924307,-129.28047633467835 c0.8061185754952634,-0.6130295781470569 1.7071692786436623,-0.9232020616009378 2.6725807463026605,-0.9232020616009378 c1.7940563107329721,0 4.325043375112313,1.2070391455162814 4.333088470676138,3.8917868206949193 l0.2912324594104646,80.44147789046141 C273.0209952053039,104.38767145975228 270.40633914706075,109.49234973697206 265.8270707521316,112.97008555381109 z" id="svg_1" class="" fill="#cccccc" fill-opacity="1"/><g id="svg_2">
</g><g id="svg_3">
</g><g id="svg_4">
</g><g id="svg_5">
</g><g id="svg_6">
</g><g id="svg_7">
</g><g id="svg_8">
</g><g id="svg_9">
</g><g id="svg_10">
</g><g id="svg_11">
</g><g id="svg_12">
</g><g id="svg_13">
</g><g id="svg_14">
</g><g id="svg_15">
</g><g id="svg_16">
</g></g></svg>