<svg xmlns="http://www.w3.org/2000/svg" version="1" width="24" height="24" viewBox="0 0 24 24" style="fill: #cccccc;"><path d="M 22 0 C 20.895431 0 20 0.8954305 20 2 C 20 2.4142136 20.128101 2.8057979 20.34375 3.125 L 18.40625 6.03125 C 18.276055 6.0046082 18.138071 6 18 6 C 17.399153 6 16.866615 6.2680514 16.5 6.6875 L 11 4.84375 C 10.919991 3.8125009 10.051777 3 9 3 C 7.8954305 3 7 3.8954305 7 5 C 7 6.1045695 7.8954305 7 9 7 C 9.0527919 7 9.1044885 7.0040159 9.15625 7 L 12.53125 13.6875 C 12.440877 13.788724 12.349735 13.881869 12.28125 14 L 7.9375 13.46875 C 7.7057229 12.620636 6.9216252 12 6 12 C 4.8954305 12 4 12.895431 4 14 C 4 14.503722 4.1926473 14.960854 4.5 15.3125 L 2.15625 20 C 2.1044885 19.995984 2.0527919 20 2 20 C 0.8954305 20 0 20.895431 0 22 C 0 23.104569 0.8954305 24 2 24 C 3.1045695 24 4 23.104569 4 22 C 4 21.488661 3.7844548 21.041114 3.46875 20.6875 L 5.8125 16 C 5.874345 16.005761 5.9366497 16 6 16 C 6.7545546 16 7.4094135 15.585686 7.75 14.96875 L 12.0625 15.53125 C 12.294277 16.379364 13.078375 17 14 17 C 15.104569 17 16 16.104569 16 15 C 16 13.895431 15.104569 13 14 13 C 13.947208 13 13.895512 12.995984 13.84375 13 L 10.5 6.3125 L 16 8.125 C 16.064891 9.1709895 16.937665 10 18 10 C 19.104569 10 20 9.1045695 20 8 C 20 7.5857864 19.871899 7.1942021 19.65625 6.875 L 21.59375 3.96875 C 21.723945 3.9953918 21.861929 4 22 4 C 23.104569 4 24 3.1045695 24 2 C 24 0.8954305 23.104569 0 22 0 z"/></svg>