<svg xmlns="http://www.w3.org/2000/svg" xmlns:sodipodi="http://sodipodi.sourceforge.net/DTD/sodipodi-0.dtd" xmlns:inkscape="http://www.inkscape.org/namespaces/inkscape" version="1.1" x="0px" y="0px" viewBox="0 0 100 100"><g transform="translate(0,-952.36218)"><path style="color:#000000;enable-background:accumulate;" d="m 42,959.36216 -2.7188,11.78125 c -1.2962,0.44522 -2.5635,0.96602 -3.7812,1.5625 l -10.25,-6.40625 -11.3125,11.3125 6.4063,10.25004 c -0.5966,1.2177 -1.1172,2.4849 -1.5626,3.7812 L 7,994.3622 l 0,16 11.7812,2.7187 c 0.4453,1.2963 0.966,2.5636 1.5626,3.7813 l -6.4063,10.25 11.3125,11.3125 10.25,-6.4063 c 1.2177,0.5965 2.485,1.1173 3.7812,1.5625 l 2.7188,11.7813 16,0 2.7188,-11.7813 c 1.2962,-0.4452 2.5635,-0.966 3.7812,-1.5625 l 10.25,6.4063 11.3125,-11.3125 -6.4063,-10.25 c 0.5966,-1.2177 1.1172,-2.485 1.5626,-3.7813 L 93,1010.3622 l 0,-16 -11.7812,-2.7188 c -0.4453,-1.2963 -0.966,-2.5635 -1.5626,-3.7812 L 86.0625,977.61216 74.75,966.29966 64.5,972.70591 c -1.2177,-0.59648 -2.485,-1.11728 -3.7812,-1.5625 L 58,959.36216 l -16,0 z m 8,23 c 11.0457,0 20,8.95424 20,20.00004 0,11.0456 -8.9543,20 -20,20 -11.0457,0 -20,-8.9544 -20,-20 0,-11.0459 8.9543,-20.00004 20,-20.00004 z" fill="#cccccc" stroke="none" marker="none" visibility="visible" display="inline" overflow="visible"/></g></svg>