<svg width="288" height="153" viewBox="0 0 288 153" xmlns="http://www.w3.org/2000/svg">

 <title/>
 <g label="Layer 1" id="imagebot_13">
  <g label="Layer 1" stroke="#0169c9" fill="#0169c9" transform="rotate(45.2479 144.087 76.6613) matrix(0.74003 -0.74473 0.74473 0.74003 -382.372 -199.021)" id="imagebot_14">
   <path stroke-linejoin="round" stroke-opacity="0.55708" stroke="#0169c9" stroke-linecap="round" stroke-width="0.6" fill="#0169c9" d="M44.033,467.92001C36.277,467.92001 30.033,474.164 30.033,481.92001L30.033,599.64001C30.033,607.396 36.277,613.64001 44.033,613.64001L290.34299,613.64001C298.099,613.64001 304.34299,607.396 304.34299,599.64001L304.34299,481.92001C304.34299,474.164 298.099,467.92001 290.34299,467.92001L44.033,467.92001zM49.1267,473.85751L285.25671,473.85751C291.90472,473.85751 297.25671,479.2095 297.25671,485.85751L297.25671,595.73749C297.25671,602.3855 291.90472,607.73749 285.25671,607.73749L49.1267,607.73749C42.4787,607.73749 37.1267,602.3855 37.1267,595.73749L37.1267,485.85751C37.1267,479.2095 42.4787,473.85751 49.1267,473.85751z" id="imagebot_24"/>
   <g stroke="#0169c9" fill="#0169c9" id="imagebot_15">
    <path stroke="#0169c9" fill="#0169c9" d="M60.664,540.81C60.66399,542.44202 60.85599,543.914 61.24,545.22601C61.65599,546.53802 62.23199,547.67401 62.968,548.63397C63.73599,549.56201 64.664,550.28198 65.752,550.79401S68.088,551.56201 69.496,551.56201C70.872,551.56201 72.104,551.30603 73.192,550.79401C74.312,550.28198 75.24,549.56201 75.976,548.63397C76.74397,547.67401 77.32,546.53802 77.704,545.22601C78.11997,543.914 78.32797,542.44202 78.328,540.81C78.32797,539.17798 78.11997,537.70599 77.704,536.39398C77.31997,535.04999 76.74397,533.914 75.976,532.98602C75.23998,532.026 74.312,531.28998 73.192,530.77802C72.104,530.26599 70.872,530.01001 69.496,530.01001C68.088,530.01001 66.84,530.28204 65.752,530.82599C64.664,531.33801 63.736,532.07397 62.968,533.034C62.23199,533.96204 61.656,535.09802 61.24,536.44202C60.85599,537.75403 60.66399,539.21002 60.664,540.81M86.056,540.81C86.05597,543.65802 85.62396,546.16998 84.76,548.34601C83.92797,550.48999 82.776,552.29797 81.304,553.77002C79.832,555.21002 78.072,556.29797 76.024,557.034C74.008,557.77002 71.832,558.138 69.496,558.138C67.224,558.138 65.08,557.77002 63.064,557.034S59.288,555.21002 57.784,553.77002C56.28,552.29797 55.096,550.48999 54.232,548.34601C53.368,546.16998 52.936,543.65802 52.936,540.81C52.936,537.96198 53.384,535.466 54.28,533.32202C55.176,531.146 56.376,529.32202 57.88,527.84998C59.416,526.37799 61.176,525.27399 63.16,524.53802C65.176,523.802 67.288,523.43402 69.496,523.43402C71.768,523.43402 73.912,523.802 75.928,524.53802C77.944,525.27405 79.704,526.37799 81.208,527.84998S83.896,531.146 84.76,533.32202C85.62396,535.466 86.056,537.96198 86.056,540.81" id="imagebot_23"/>
    <path stroke="#0169c9" fill="#0169c9" d="M101.99,523.82001C106.982,523.82007 110.806,524.71606 113.462,526.508C116.118,528.26801 117.446,531.02002 117.446,534.76404C117.44597,537.10004 116.90197,539.00403 115.814,540.47601C114.758,541.91602 113.222,543.052 111.206,543.88403C111.87798,544.716 112.582,545.67603 113.318,546.76404C114.05398,547.82001 114.774,548.94 115.478,550.12402C116.21398,551.276 116.918,552.492 117.59,553.77203C118.26197,555.02002 118.886,556.25201 119.462,557.46802L111.062,557.46802C110.45398,556.38 109.83,555.276 109.19,554.15601C108.58198,553.03601 107.942,551.948 107.27,550.89203C106.62999,549.836 105.99,548.84399 105.35,547.91602C104.70999,546.95599 104.07,546.09198 103.43,545.32404L99.734,545.32404L99.734,557.46802L92.246,557.46802L92.246,524.68402C93.878,524.36401 95.558,524.14001 97.286,524.01202C99.046,523.88403 100.614,523.82007 101.99,523.82001M102.422,530.20398C101.87799,530.20404 101.382,530.22003 100.934,530.25201C100.51799,530.284 100.11799,530.31604 99.734,530.34802L99.734,539.37201L101.846,539.37201C104.662,539.37201 106.678,539.02002 107.894,538.31604C109.11,537.612 109.718,536.41199 109.718,534.716C109.71798,533.08398 109.09398,531.93201 107.846,531.26001C106.63,530.55603 104.822,530.20398 102.422,530.20398" id="imagebot_22"/>
    <path stroke="#0169c9" fill="#0169c9" d="M124.31,524.20001L131.798,524.20001L131.798,557.46399L124.31,557.46399L124.31,524.20001" id="imagebot_21"/>
    <path stroke="#0169c9" fill="#0169c9" d="M155.72,529.96002C152.23199,529.96002 149.70399,530.93604 148.136,532.888C146.60001,534.80804 145.832,537.448 145.832,540.80804C145.83199,542.44 146.02399,543.92804 146.408,545.27203C146.79199,546.58405 147.368,547.72003 148.136,548.67999C148.90399,549.64001 149.864,550.39203 151.01601,550.93604C152.168,551.448 153.51199,551.70404 155.048,551.70404C155.87997,551.70404 156.584,551.68805 157.16,551.65601C157.76797,551.62402 158.29601,551.56 158.744,551.46405L158.744,539.896L166.23199,539.896L166.23199,556.36005C165.33597,556.71204 163.896,557.08002 161.912,557.46405C159.92799,557.88 157.48,558.08801 154.56799,558.08801C152.07201,558.08801 149.8,557.70404 147.752,556.93604C145.73599,556.16803 144.008,555.04803 142.56799,553.57605S140.008,550.29602 139.20799,548.15204C138.44,546.008 138.056,543.56 138.056,540.80804C138.056,538.02405 138.48801,535.56 139.35201,533.41602S141.39999,529.46405 142.90401,527.992C144.408,526.48804 146.168,525.35199 148.18401,524.58405C150.23199,523.81604 152.408,523.43201 154.71201,523.43201C156.28,523.43207 157.688,523.54407 158.936,523.76801C160.216,523.96002 161.304,524.20007 162.2,524.48804C163.12798,524.74408 163.88,525.01605 164.45599,525.30402C165.06396,525.59204 165.496,525.81604 165.752,525.97601L163.592,531.97601C162.56799,531.43207 161.384,530.96802 160.03999,530.58405C158.728,530.16803 157.28799,529.96002 155.72,529.96002" id="imagebot_20"/>
    <path stroke="#0169c9" fill="#0169c9" d="M173.16,524.20001L180.64799,524.20001L180.64799,557.46399L173.16,557.46399L173.16,524.20001" id="imagebot_19"/>
    <path stroke="#0169c9" fill="#0169c9" d="M210.66,557.46002C208.51601,553.65204 206.196,549.89203 203.7,546.17999S198.548,538.96405 195.73199,535.66803L195.73199,557.46002L188.34,557.46002L188.34,524.19604L194.436,524.19604C195.492,525.25201 196.66,526.54803 197.94,528.08405S200.51601,531.26801 201.828,533.02802C203.172,534.75604 204.5,536.56403 205.812,538.45203C207.12399,540.30804 208.356,542.10004 209.508,543.828L209.508,524.19604L216.948,524.19604L216.948,557.46002L210.66,557.46002" id="imagebot_18"/>
    <path stroke="#0169c9" fill="#0169c9" d="M246.89999,557.46002C246.54797,556.30804 246.14796,555.12402 245.7,553.90802C245.28397,552.69202 244.86797,551.47601 244.452,550.26001L231.49199,550.26001C231.07597,551.47601 230.64398,552.69202 230.19598,553.90802C229.77998,555.12402 229.39598,556.30804 229.04399,557.46002L221.26799,557.46002C222.51599,553.87604 223.7,550.56403 224.81999,547.52405S227.02798,541.62 228.08398,538.93201C229.172,536.24402 230.228,533.70001 231.25198,531.30005C232.30798,528.86804 233.396,526.5 234.51599,524.19604L241.66798,524.19604C242.756,526.5 243.82799,528.86804 244.88399,531.30005C245.93999,533.70001 246.99599,536.24402 248.05199,538.93201C249.13998,541.62 250.24399,544.48401 251.36398,547.52405S253.66798,553.87604 254.91599,557.46002L246.89999,557.46002M237.924,531.73199C237.76398,532.21204 237.52399,532.86804 237.20399,533.70001C236.88399,534.53204 236.51598,535.492 236.09999,536.58002C235.68398,537.66803 235.21999,538.86804 234.70799,540.17999C234.22798,541.492 233.73198,542.86804 233.21999,544.30804L242.67599,544.30804C242.16397,542.86804 241.66798,541.492 241.18799,540.17999C240.70798,538.86804 240.24397,537.66803 239.79599,536.58002C239.37997,535.492 239.01198,534.53204 238.69199,533.70001C238.37198,532.86804 238.11598,532.21204 237.924,531.73199" id="imagebot_17"/>
    <path stroke="#0169c9" fill="#0169c9" d="M281.44,551.03003L281.44,557.46204L259.216,557.46204L259.216,524.19806L266.70401,524.19806L266.70401,551.03003L281.44,551.03003" id="imagebot_16"/>
   </g>
  </g>
  <title label="Layer 1"/>
 </g>
 <metadata>image/svg+xmlOpenclipartOriginal Business Stamp 12012-09-02T05:27:09A slanted solid blue business stamp, with the words, "Original." Created with Inkscape.https://openclipart.org/detail/172042/original-business-stamp-1-by-merlin2525-172042Merlin2525businessdocumentfilefilingofficeoriginalstampwatermark</metadata>
</svg>