<svg width="288" height="153" viewBox="0 0 288 153" xmlns="http://www.w3.org/2000/svg">

 <title/>
 <g label="Layer 1" id="imagebot_9">
  <g label="Layer 1" stroke="#339900" transform="rotate(44.7602 143.881 76.6177) matrix(0.74284 -0.7393 0.7393 0.74284 -135.868 -480.074)" id="imagebot_10">
   <path stroke-linejoin="round" stroke-opacity="0.55708" stroke="#339900" stroke-linecap="round" stroke-width="0.6" fill="#339900" d="M-308.66,491.92999C-316.41599,491.92999 -322.66,498.17398 -322.66,505.92999L-322.66,623.64996C-322.66,631.40601 -316.41599,637.64996 -308.66,637.64996L-62.35001,637.64996C-54.59401,637.64996 -48.35001,631.40601 -48.35001,623.64996L-48.35001,505.92999C-48.35001,498.17398 -54.59401,491.92999 -62.35001,491.92999L-308.66,491.92999zM-303.56631,497.86749L-67.4363,497.86749C-60.7883,497.86749 -55.4363,503.21948 -55.4363,509.86749L-55.4363,619.7475C-55.4363,626.39551 -60.7883,631.7475 -67.4363,631.7475L-303.56631,631.7475C-310.21429,631.7475 -315.56631,626.39551 -315.56631,619.7475L-315.56631,509.86749C-315.56631,503.21948 -310.21429,497.86749 -303.56631,497.86749z" id="imagebot_16"/>
   <g stroke="#339900" fill="#339900" id="imagebot_11">
    <path stroke="#339900" d="M-251.67,575.76001C-250.614,575.76001 -249.75,575.67999 -249.078,575.52002C-248.37402,575.328 -247.814,575.08801 -247.39799,574.79999C-246.98203,574.47998 -246.69402,574.112 -246.534,573.69598C-246.37402,573.28003 -246.29402,572.81604 -246.29401,572.30402C-246.29402,571.216 -246.80602,570.32001 -247.83,569.61603C-248.854,568.88 -250.614,568.09601 -253.11,567.26404C-254.198,566.88 -255.286,566.448 -256.37399,565.96802C-257.46201,565.45599 -258.43799,564.83203 -259.302,564.09601C-260.16602,563.328 -260.87,562.41602 -261.414,561.35999C-261.95801,560.27203 -262.23001,558.96002 -262.23001,557.42401S-261.94199,554.51202 -261.366,553.29602C-260.79001,552.04803 -259.974,550.992 -258.918,550.12799C-257.862,549.26404 -256.582,548.60803 -255.078,548.16003C-253.57401,547.68005 -251.87801,547.44006 -249.99001,547.44C-247.75,547.44006 -245.814,547.68005 -244.18201,548.16003C-242.55,548.64001 -241.20599,549.16803 -240.14999,549.74402L-242.31,555.64801C-243.23802,555.16803 -244.278,554.75201 -245.42999,554.40002C-246.55,554.01605 -247.91,553.82404 -249.50999,553.82404C-251.302,553.82404 -252.59801,554.08002 -253.39799,554.59198C-254.16602,555.07202 -254.55,555.82404 -254.55,556.84802C-254.55,557.45605 -254.40601,557.96802 -254.118,558.38403C-253.83002,558.80005 -253.43001,559.18402 -252.918,559.53601C-252.37401,559.85602 -251.76601,560.16003 -251.09399,560.448C-250.39001,560.70404 -249.62199,560.97601 -248.78999,561.26404C-247.062,561.90405 -245.558,562.54401 -244.278,563.18402C-242.998,563.79199 -241.942,564.51202 -241.11,565.34399C-240.24603,566.17603 -239.606,567.15204 -239.19,568.27203C-238.77403,569.39203 -238.56602,570.75201 -238.56599,572.35199C-238.56602,575.45599 -239.65401,577.87201 -241.83,579.60004C-244.006,581.29602 -247.286,582.14398 -251.67,582.14398C-253.142,582.14398 -254.47,582.04803 -255.65401,581.85602C-256.83801,581.69598 -257.89401,581.48804 -258.82199,581.23199C-259.71802,580.97601 -260.50201,580.70398 -261.17401,580.41602C-261.814,580.12799 -262.358,579.85602 -262.806,579.60004L-260.694,573.64801C-259.702,574.19202 -258.48599,574.68799 -257.04599,575.13599C-255.57401,575.552 -253.782,575.76001 -251.67,575.76001" id="imagebot_15"/>
    <path stroke="#339900" d="M-221.28,581.46997L-221.28,548.20599L-198.81599,548.20599L-198.81599,554.49396L-213.79201,554.49396L-213.79201,561.02197L-200.496,561.02197L-200.496,567.16595L-213.79201,567.16595L-213.79201,575.18195L-197.71201,575.18195L-197.71201,581.46997L-221.28,581.46997" id="imagebot_14"/>
    <path stroke="#339900" d="M-158.36,581.46997C-160.504,577.66199 -162.82401,573.90198 -165.32001,570.18994S-170.472,562.974 -173.28799,559.67798L-173.28799,581.46997L-180.67999,581.46997L-180.67999,548.20599L-174.584,548.20599C-173.528,549.26196 -172.36,550.55798 -171.08,552.09399S-168.504,555.27795 -167.192,557.03796C-165.84801,558.76599 -164.52,560.57397 -163.20799,562.46198C-161.896,564.31799 -160.664,566.10999 -159.51199,567.83795L-159.51199,548.20599L-152.07201,548.20599L-152.07201,581.46997L-158.36,581.46997" id="imagebot_13"/>
    <path stroke="#339900" d="M-108.2,548.21002L-108.2,554.59399L-118.232,554.59399L-118.232,581.474L-125.72,581.474L-125.72,554.59399L-135.752,554.59399L-135.752,548.21002L-108.2,548.21002" id="imagebot_12"/>
   </g>
  </g>
  <title label="Layer 1"/>
 </g>
 <metadata>image/svg+xmlOpenclipartSent Business Stamp 12012-09-02T03:47:26A slanted solid green business stamp, with the words, "Sent." Created with Inkscape.https://openclipart.org/detail/172034/sent-business-stamp-1-by-merlin2525-172034Merlin2525businessdocumentfilefilingofficesentstampwatermark</metadata>
</svg>