<!-- Width and height attributes must be present, else iText will not display the SVG image. -->
<svg width="288" height="153" viewBox="0 0 288 153" xmlns="http://www.w3.org/2000/svg">

 <title/>
 <g label="Layer 1" id="imagebot_13">
  <g label="Layer 1" stroke="#339900" fill="#339900" transform="rotate(44.8206 143.815 76.4874) matrix(0.74277 -0.73942 0.73942 0.74277 216.036 -125.68)" id="imagebot_14">
   <path stroke-linejoin="round" stroke-opacity="0.55708" stroke="#339900" stroke-linecap="round" stroke-width="0.6" fill="#339900" d="M-308.07999,15.23C-315.836,15.23 -322.07999,21.474 -322.07999,29.23L-322.07999,146.95C-322.07999,154.70599 -315.836,160.95 -308.07999,160.95L-61.76999,160.95C-54.01399,160.95 -47.76999,154.70599 -47.76999,146.95L-47.76999,29.23C-47.76999,21.474 -54.01399,15.23 -61.76999,15.23L-308.07999,15.23zM-302.98618,21.1675L-66.86619,21.1675C-60.21819,21.1675 -54.86619,26.5195 -54.86619,33.1675L-54.86619,143.03751C-54.86619,149.6855 -60.21819,155.03751 -66.86619,155.03751L-302.98618,155.03751C-309.63419,155.03751 -314.98618,149.6855 -314.98618,143.03751L-314.98618,33.1675C-314.98618,26.5195 -309.63419,21.1675 -302.98618,21.1675z" id="imagebot_24"/>
   <g stroke="#339900" fill="#339900" id="imagebot_15">
    <path stroke="#339900" fill="#339900" d="M-285.23001,104.07C-285.56735,102.966 -285.95071,101.8313 -286.38,100.666C-286.77869,99.5007 -287.17737,98.3353 -287.57602,97.17L-299.996,97.17C-300.39468,98.3353 -300.80869,99.5007 -301.23801,100.666C-301.63669,101.8313 -302.00467,102.966 -302.34201,104.07L-309.79401,104.07C-308.59802,100.6353 -307.46332,97.4613 -306.39001,94.548S-304.27402,88.89 -303.26202,86.314C-302.2193,83.738 -301.20731,81.3 -300.22601,79C-299.21402,76.6694 -298.1713,74.4 -297.09802,72.192L-290.24402,72.192C-289.20142,74.4 -288.17401,76.6694 -287.16202,79C-286.15002,81.3 -285.138,83.738 -284.12601,86.314C-283.0834,88.89 -282.02542,91.6347 -280.952,94.548C-279.87872,97.4613 -278.74402,100.6353 -277.548,104.07L-285.23001,104.07M-293.832,79.414C-293.98535,79.87402 -294.21536,80.5027 -294.522,81.3C-294.8287,82.09736 -295.18134,83.0174 -295.58002,84.06C-295.9787,85.1027 -296.42334,86.2527 -296.914,87.51C-297.37402,88.7673 -297.84937,90.086 -298.34,91.466L-289.27802,91.466C-289.76868,90.086 -290.24402,88.7673 -290.70401,87.51C-291.16403,86.2527 -291.6087,85.1027 -292.03802,84.06C-292.43668,83.0174 -292.78937,82.0974 -293.09601,81.3C-293.40268,80.50269 -293.64801,79.874 -293.832,79.414" id="imagebot_23"/>
    <path stroke="#339900" fill="#339900" d="M-263.85001,71.828C-259.09671,71.82803 -255.4474,72.67136 -252.90201,74.358C-250.3567,76.014 -249.08401,78.7434 -249.08401,82.546C-249.08405,86.3794 -250.37201,89.1547 -252.94801,90.872C-255.52402,92.5587 -259.20401,93.402 -263.98801,93.402L-266.242,93.402L-266.242,104.074L-273.418,104.074L-273.418,72.656C-271.854,72.34936 -270.198,72.1347 -268.45001,72.012C-266.702,71.88936 -265.1687,71.82803 -263.85001,71.828M-263.39001,77.946C-263.91135,77.94603 -264.43271,77.96136 -264.95401,77.992C-265.4447,78.02269 -265.87402,78.05336 -266.242,78.084L-266.242,87.284L-263.98801,87.284C-261.504,87.28402 -259.63342,86.94668 -258.37601,86.272C-257.11871,85.59735 -256.49002,84.34 -256.49002,82.5C-256.49002,81.61069 -256.65869,80.8747 -256.996,80.292C-257.3027,79.70936 -257.7627,79.2494 -258.37601,78.912C-258.95871,78.54402 -259.67941,78.29869 -260.53802,78.176C-261.3967,78.02269 -262.34741,77.94603 -263.39001,77.946" id="imagebot_22"/>
    <path stroke="#339900" fill="#339900" d="M-234.21001,71.828C-229.45671,71.82803 -225.8074,72.67136 -223.26201,74.358C-220.71671,76.014 -219.44402,78.7434 -219.44402,82.546C-219.44405,86.3794 -220.73201,89.1547 -223.30801,90.872C-225.884,92.5587 -229.56401,93.402 -234.34801,93.402L-236.60201,93.402L-236.60201,104.074L-243.77802,104.074L-243.77802,72.656C-242.214,72.34936 -240.55801,72.1347 -238.81001,72.012C-237.06201,71.88936 -235.52872,71.82803 -234.21001,71.828M-233.75002,77.946C-234.27136,77.94603 -234.79271,77.96136 -235.31401,77.992C-235.80469,78.02269 -236.23402,78.05336 -236.60201,78.084L-236.60201,87.284L-234.34801,87.284C-231.86401,87.28402 -229.99341,86.94668 -228.73601,86.272C-227.47871,85.59735 -226.85001,84.34 -226.85001,82.5C-226.85004,81.61069 -227.01871,80.8747 -227.356,80.292C-227.6627,79.70936 -228.1227,79.2494 -228.73601,78.912C-229.3187,78.54402 -230.03941,78.29869 -230.89801,78.176C-231.7567,78.02269 -232.70741,77.94603 -233.75002,77.946" id="imagebot_21"/>
    <path stroke="#339900" fill="#339900" d="M-204.78999,71.828C-200.006,71.82803 -196.34138,72.6867 -193.79599,74.404C-191.25069,76.0907 -189.978,78.728 -189.978,82.316C-189.97801,84.5547 -190.49934,86.3794 -191.54199,87.79C-192.55399,89.17 -194.02599,90.2587 -195.95799,91.056C-195.31401,91.85334 -194.63939,92.7733 -193.93399,93.816C-193.22868,94.828 -192.5387,95.9013 -191.86398,97.036C-191.15868,98.14 -190.48399,99.3053 -189.84,100.532C-189.19601,101.728 -188.59799,102.9087 -188.04599,104.074L-196.09599,104.074C-196.67867,103.0313 -197.27669,101.9733 -197.88998,100.9C-198.47267,99.8267 -199.08598,98.784 -199.73,97.772C-200.34334,96.76 -200.9567,95.8093 -201.56999,94.92C-202.18333,94.00001 -202.79669,93.172 -203.40999,92.436L-206.952,92.436L-206.952,104.074L-214.12799,104.074L-214.12799,72.656C-212.564,72.34936 -210.95399,72.1347 -209.29799,72.012C-207.6113,71.88936 -206.10869,71.82803 -204.78999,71.828M-204.37599,77.946C-204.89732,77.94603 -205.37267,77.96136 -205.80199,77.992C-206.20067,78.02269 -206.584,78.05336 -206.952,78.084L-206.952,86.732L-204.92799,86.732C-202.22939,86.73202 -200.29739,86.39468 -199.13199,85.72C-197.96669,85.04535 -197.38399,83.8954 -197.38399,82.27C-197.384,80.706 -197.98201,79.602 -199.17799,78.958C-200.34338,78.28336 -202.07599,77.946 -204.37599,77.946" id="imagebot_20"/>
    <path stroke="#339900" fill="#339900" d="M-178.17999,88.112C-178.17999,89.676 -177.996,91.0867 -177.62799,92.344C-177.22932,93.6013 -176.67734,94.69 -175.97198,95.61C-175.23599,96.49934 -174.34669,97.1893 -173.30399,97.68C-172.26138,98.17067 -171.06538,98.41601 -169.71599,98.416C-168.39738,98.41601 -167.21669,98.17067 -166.174,97.68C-165.10069,97.18934 -164.2114,96.4993 -163.506,95.61C-162.77,94.69001 -162.21799,93.6013 -161.84999,92.344C-161.45135,91.0867 -161.25201,89.676 -161.25198,88.112C-161.25201,86.548 -161.45135,85.1374 -161.84999,83.88C-162.21802,82.592 -162.77,81.5034 -163.506,80.614C-164.21135,79.69402 -165.10069,78.9887 -166.174,78.498C-167.21669,78.00736 -168.39738,77.76203 -169.71599,77.762C-171.06538,77.76203 -172.26138,78.02269 -173.30399,78.544C-174.34669,79.03469 -175.23599,79.74 -175.97198,80.66C-176.67734,81.54936 -177.22929,82.638 -177.62799,83.926C-177.996,85.1834 -178.17999,86.5787 -178.17999,88.112M-153.84599,88.112C-153.84602,90.8413 -154.26003,93.2487 -155.088,95.334C-155.88535,97.3887 -156.9894,99.1213 -158.39999,100.532C-159.81068,101.912 -161.49739,102.9547 -163.45999,103.66C-165.39198,104.36533 -167.47739,104.718 -169.71599,104.718C-171.89339,104.718 -173.94798,104.36533 -175.87999,103.66S-179.49869,101.912 -180.93999,100.532C-182.38129,99.1213 -183.51599,97.3887 -184.34399,95.334C-185.172,93.2487 -185.58598,90.8413 -185.58598,88.112S-185.15666,82.9907 -184.29799,80.936C-183.43933,78.8507 -182.28929,77.1027 -180.84799,75.692C-179.37599,74.2814 -177.68929,73.2234 -175.78799,72.518C-173.85599,71.8127 -171.83199,71.46 -169.71599,71.46C-167.5387,71.46003 -165.48399,71.8127 -163.55199,72.518C-161.62,73.22336 -159.9334,74.2814 -158.49199,75.692C-157.05069,77.1027 -155.91599,78.8507 -155.088,80.936C-154.26003,82.9907 -153.84599,85.3827 -153.84599,88.112" id="imagebot_19"/>
    <path stroke="#339900" fill="#339900" d="M-139.60001,104.07C-140.85741,101.402 -142.09941,98.6267 -143.326,95.744C-144.5527,92.8613 -145.71802,90.0093 -146.82201,87.188S-148.95331,81.668 -149.90401,79.092C-150.82401,76.516 -151.62131,74.216 -152.29601,72.192L-144.384,72.192C-143.77069,74.032 -143.11131,76.0254 -142.40601,78.172L-140.19801,84.52C-139.43137,86.636 -138.6954,88.66 -137.99001,90.592C-137.28468,92.524 -136.62541,94.1953 -136.01201,95.606C-135.42937,94.1953 -134.78542,92.524 -134.08002,90.592C-133.34402,88.66 -132.60802,86.636 -131.87201,84.52C-131.10538,82.404 -130.36942,80.288 -129.66402,78.172C-128.92804,76.0254 -128.2534,74.032 -127.64001,72.192L-120.00401,72.192C-120.70938,74.216 -121.52201,76.516 -122.44201,79.092C-123.36204,81.668 -124.37401,84.3667 -125.47801,87.188S-127.74741,92.8613 -128.97401,95.744C-130.20071,98.6267 -131.4427,101.402 -132.70001,104.07L-139.60001,104.07" id="imagebot_18"/>
    <path stroke="#339900" fill="#339900" d="M-115.84,104.07L-115.84,72.192L-94.312,72.192L-94.312,78.218L-108.664,78.218L-108.664,84.474L-95.922,84.474L-95.922,90.362L-108.664,90.362L-108.664,98.044L-93.254,98.044L-93.254,104.07L-115.84,104.07" id="imagebot_17"/>
    <path stroke="#339900" fill="#339900" d="M-80.809,98.232C-80.47168,98.26267 -80.08834,98.29334 -79.659,98.324C-79.19901,98.32401 -78.66235,98.32401 -78.049,98.324C-74.461,98.32401 -71.8084,97.41934 -70.091,95.61C-68.343,93.8007 -67.469,91.3013 -67.469,88.112C-67.46902,84.7694 -68.29702,82.2394 -69.953,80.522C-71.609,78.8047 -74.231,77.946 -77.819,77.946C-78.30968,77.94603 -78.81568,77.96136 -79.337,77.992C-79.85834,77.99203 -80.349,78.02269 -80.809,78.084L-80.809,98.232M-60.063,88.112C-60.06303,90.872 -60.49236,93.2793 -61.351,95.334C-62.2097,97.3887 -63.4364,99.0907 -65.031,100.44C-66.595,101.7893 -68.5117,102.8013 -70.781,103.476C-73.0504,104.15067 -75.5957,104.488 -78.417,104.488C-79.705,104.488 -81.2077,104.4267 -82.925,104.304C-84.6423,104.212 -86.329,103.99734 -87.985,103.66L-87.985,72.61C-86.329,72.30336 -84.6117,72.10403 -82.833,72.012C-81.0237,71.88936 -79.475,71.82803 -78.187,71.828C-75.4577,71.82804 -72.989,72.1347 -70.781,72.748C-68.5424,73.36136 -66.6257,74.3274 -65.031,75.646C-63.4364,76.9647 -62.2097,78.6514 -61.351,80.706C-60.49236,82.7607 -60.063,85.2294 -60.063,88.112" id="imagebot_16"/>
   </g>
  </g>
  <title label="Layer 1"/>
 </g>
 <metadata>image/svg+xmlOpenclipartApproved Business Stamp 12012-09-02T03:36:37A slanted solid green business stamp, with the words, "Approved." Created with Inkscape.https://openclipart.org/detail/172030/approved-business-stamp-1-by-merlin2525-172030Merlin2525approvedbusinessdocumentfilefilingofficestampwatermark</metadata>
</svg>