<svg width="288" height="153" viewBox="0 0 288 153" xmlns="http://www.w3.org/2000/svg">

 <title/>
 <g label="Layer 1" id="imagebot_14">
  <g label="Layer 1" stroke="#d40000" fill="#d40000" transform="rotate(45.2427 144.075 76.5686) matrix(0.73936 -0.74603 0.74603 0.73936 -192.388 1016.86)" id="imagebot_15">
   <path stroke-linejoin="round" stroke-opacity="0.55708" stroke="#d40000" stroke-linecap="round" stroke-width="0.6" fill="#d40000" d="M738.20001,-475.51001C730.44403,-475.51001 724.20001,-469.26602 724.20001,-461.51001L724.20001,-343.79001C724.20001,-336.034 730.44403,-329.79001 738.20001,-329.79001L984.51001,-329.79001C992.26599,-329.79001 998.51001,-336.034 998.51001,-343.79001L998.51001,-461.51001C998.51001,-469.26602 992.26599,-475.51001 984.51001,-475.51001L738.20001,-475.51001zM743.29382,-469.57251L979.41382,-469.57251C986.06183,-469.57251 991.41382,-464.22052 991.41382,-457.57251L991.41382,-347.6925C991.41382,-341.04453 986.06183,-335.6925 979.41382,-335.6925L743.29382,-335.6925C736.64581,-335.6925 731.29382,-341.04453 731.29382,-347.6925L731.29382,-457.57251C731.29382,-464.22052 736.64581,-469.57251 743.29382,-469.57251z" id="imagebot_26"/>
   <g stroke="#d40000" fill="#d40000" id="imagebot_16">
    <path stroke="#d40000" fill="#d40000" d="M799.09003,-420.48999C799.354,-420.466 799.65399,-420.44199 799.99005,-420.418L801.25,-420.418C804.05804,-420.418 806.13403,-421.12598 807.47803,-422.54199C808.84601,-423.95798 809.53003,-425.914 809.53003,-428.41C809.53003,-431.026 808.88202,-433.00598 807.58606,-434.34998S804.23804,-436.366 801.43005,-436.366C801.04602,-436.36597 800.65002,-436.354 800.242,-436.32999C799.83405,-436.32996 799.45001,-436.306 799.09003,-436.258L799.09003,-420.48999M815.32605,-428.41C815.32599,-426.25 814.98999,-424.366 814.31805,-422.758C813.646,-421.14999 812.68604,-419.81799 811.43805,-418.76199C810.21405,-417.70599 808.71405,-416.914 806.93805,-416.38599S803.17004,-415.59399 800.96204,-415.59399C799.95404,-415.59399 798.77802,-415.642 797.43402,-415.73798C796.09003,-415.81 794.77002,-415.978 793.47406,-416.242L793.47406,-440.54199C794.77002,-440.78198 796.11401,-440.93796 797.50604,-441.00998C798.92206,-441.10599 800.13403,-441.15396 801.14203,-441.15399C803.27802,-441.15396 805.21002,-440.91397 806.93805,-440.43399C808.69,-439.95398 810.19,-439.198 811.43805,-438.16599S813.64606,-435.814 814.31805,-434.20599C814.98999,-432.59799 815.32605,-430.66599 815.32605,-428.41" id="imagebot_25"/>
    <path stroke="#d40000" fill="#d40000" d="M824.70001,-428.41C824.70001,-427.186 824.84399,-426.082 825.13202,-425.09799C825.44397,-424.11401 825.87598,-423.26199 826.42804,-422.54199C827.00403,-421.84601 827.70001,-421.306 828.51599,-420.922C829.33197,-420.53799 830.26801,-420.34601 831.32404,-420.34601C832.35602,-420.34601 833.28003,-420.53799 834.09601,-420.922C834.93597,-421.306 835.63202,-421.84601 836.18402,-422.54199C836.76001,-423.26199 837.19202,-424.11401 837.47998,-425.09799C837.79199,-426.082 837.948,-427.186 837.948,-428.41C837.948,-429.634 837.79199,-430.73801 837.47998,-431.72198C837.19202,-432.73001 836.76001,-433.582 836.18402,-434.27802C835.63202,-434.99799 834.93604,-435.54999 834.09601,-435.93399C833.27997,-436.31799 832.35602,-436.50998 831.32404,-436.51001C830.26801,-436.50998 829.33203,-436.30597 828.51599,-435.89801C827.70001,-435.51398 827.00403,-434.96198 826.42804,-434.242C825.87598,-433.54599 825.44397,-432.694 825.13202,-431.686C824.84399,-430.702 824.70001,-429.60999 824.70001,-428.41M843.74402,-428.41C843.74396,-426.27399 843.41998,-424.39001 842.77203,-422.758C842.14801,-421.14999 841.284,-419.79401 840.17999,-418.69C839.07599,-417.60999 837.75598,-416.79401 836.22003,-416.242C834.70801,-415.69 833.07599,-415.414 831.32404,-415.414C829.62,-415.414 828.01202,-415.69 826.5,-416.242C824.98804,-416.79401 823.66803,-417.60999 822.54004,-418.69C821.41199,-419.79401 820.52399,-421.14999 819.87604,-422.758C819.22803,-424.39001 818.90399,-426.27399 818.90399,-428.41C818.90399,-430.54599 819.23999,-432.418 819.91199,-434.026C820.58398,-435.65799 821.48401,-437.026 822.612,-438.13C823.76404,-439.23401 825.08398,-440.06201 826.57202,-440.61401C828.08398,-441.16599 829.66803,-441.44199 831.32404,-441.44199C833.02802,-441.44199 834.63599,-441.16599 836.14801,-440.61401C837.66003,-440.06198 838.97998,-439.23401 840.10803,-438.13S842.12402,-435.65799 842.77203,-434.026C843.41998,-432.418 843.74396,-430.54599 843.74402,-428.41" id="imagebot_24"/>
    <path stroke="#d40000" fill="#d40000" d="M873.77002,-415.91C872.16205,-418.76599 870.422,-421.586 868.55005,-424.37S864.68604,-429.78201 862.57404,-432.254L862.57404,-415.91L857.03003,-415.91L857.03003,-440.858L861.60199,-440.858C862.39398,-440.06598 863.27002,-439.09399 864.23004,-437.94199C865.19,-436.79001 866.16205,-435.55399 867.146,-434.23401C868.15399,-432.93799 869.15002,-431.582 870.13403,-430.16599C871.11798,-428.77399 872.04199,-427.42999 872.90601,-426.134L872.90601,-440.858L878.48602,-440.858L878.48602,-415.91L873.77002,-415.91" id="imagebot_23"/>
    <path stroke="#d40000" fill="#d40000" d="M888.96002,-428.41C888.96002,-427.186 889.104,-426.082 889.39203,-425.09799C889.70398,-424.11401 890.13599,-423.26199 890.68805,-422.54199C891.26404,-421.84601 891.96002,-421.306 892.776,-420.922C893.59198,-420.53799 894.52802,-420.34601 895.58405,-420.34601C896.61603,-420.34601 897.54004,-420.53799 898.35602,-420.922C899.19598,-421.306 899.89203,-421.84601 900.44403,-422.54199C901.02002,-423.26199 901.45203,-424.11401 901.73999,-425.09799C902.052,-426.082 902.20801,-427.186 902.20801,-428.41C902.20801,-429.634 902.052,-430.73801 901.73999,-431.72198C901.45203,-432.73001 901.02002,-433.582 900.44403,-434.27802C899.89203,-434.99799 899.19604,-435.54999 898.35602,-435.93399C897.53998,-436.31799 896.61603,-436.50998 895.58405,-436.51001C894.52802,-436.50998 893.59204,-436.30597 892.776,-435.89801C891.96002,-435.51398 891.26404,-434.96198 890.68805,-434.242C890.13599,-433.54599 889.70398,-432.694 889.39203,-431.686C889.104,-430.702 888.96002,-429.60999 888.96002,-428.41M908.00403,-428.41C908.00397,-426.27399 907.67999,-424.39001 907.03204,-422.758C906.40802,-421.14999 905.54401,-419.79401 904.44,-418.69C903.336,-417.60999 902.01599,-416.79401 900.48004,-416.242C898.96802,-415.69 897.336,-415.414 895.58405,-415.414C893.88,-415.414 892.27203,-415.69 890.76001,-416.242C889.24805,-416.79401 887.92804,-417.60999 886.80005,-418.69C885.672,-419.79401 884.784,-421.14999 884.13605,-422.758C883.48804,-424.39001 883.164,-426.27399 883.164,-428.41S883.5,-432.418 884.172,-434.026C884.84399,-435.65799 885.74402,-437.026 886.87201,-438.13C888.02405,-439.23401 889.34399,-440.06201 890.83203,-440.61401C892.34399,-441.16599 893.92804,-441.44199 895.58405,-441.44199C897.28802,-441.44199 898.896,-441.16599 900.40802,-440.61401C901.92004,-440.06198 903.23999,-439.23401 904.36804,-438.13S906.38403,-435.65799 907.03204,-434.026C907.67999,-432.418 908.00397,-430.54599 908.00403,-428.41" id="imagebot_22"/>
    <path stroke="#d40000" fill="#d40000" d="M930.31,-440.85999L930.31,-436.07199L922.78601,-436.07199L922.78601,-415.91199L917.16998,-415.91199L917.16998,-436.07199L909.646,-436.07199L909.646,-440.85999L930.31,-440.85999" id="imagebot_21"/>
    <path stroke="#d40000" fill="#d40000" d="M826.33002,-370.41C822.27405,-370.41 819.17804,-371.53799 817.04199,-373.79401C814.92999,-376.04999 813.87402,-379.254 813.87402,-383.40601C813.87402,-385.47 814.198,-387.306 814.84601,-388.914C815.49402,-390.54599 816.38202,-391.914 817.51001,-393.01801C818.638,-394.146 819.98199,-394.99799 821.54199,-395.57401C823.10199,-396.14999 824.79401,-396.43799 826.61804,-396.43799C827.67401,-396.43799 828.63403,-396.354 829.49805,-396.186C830.362,-396.04199 831.11804,-395.86197 831.76599,-395.646C832.414,-395.45398 832.95404,-395.24997 833.38605,-395.034C833.81799,-394.81799 834.13,-394.64999 834.32202,-394.53L832.70203,-389.99399C831.93402,-390.40198 831.034,-390.75 830.00201,-391.03799C828.99402,-391.32599 827.84204,-391.46997 826.54602,-391.47C825.68201,-391.46997 824.83002,-391.32599 823.98999,-391.03799C823.17401,-390.75 822.44202,-390.28198 821.79401,-389.634C821.16998,-389.00998 820.66602,-388.194 820.28204,-387.186C819.89801,-386.17801 819.70599,-384.95401 819.70599,-383.51401C819.70599,-382.362 819.82599,-381.28201 820.06604,-380.27399C820.33002,-379.29001 820.73804,-378.43799 821.29004,-377.71799C821.86603,-376.99799 822.61005,-376.422 823.52203,-375.98999C824.43402,-375.582 825.53802,-375.37799 826.83405,-375.37799C827.65002,-375.37799 828.38202,-375.42599 829.03003,-375.522C829.67798,-375.61801 830.25403,-375.72601 830.758,-375.84601C831.26202,-375.98999 831.70599,-376.146 832.09003,-376.314C832.474,-376.48199 832.82202,-376.638 833.13403,-376.78201L834.68201,-372.28201C833.89001,-371.802 832.77405,-371.37 831.33405,-370.98599C829.89404,-370.60202 828.22601,-370.41 826.33002,-370.41" id="imagebot_20"/>
    <path stroke="#d40000" fill="#d40000" d="M842.09998,-383.41C842.09998,-382.186 842.24396,-381.082 842.53198,-380.09799C842.84399,-379.11401 843.27594,-378.26199 843.828,-377.54199C844.40399,-376.84601 845.09998,-376.306 845.91595,-375.922C846.73199,-375.53799 847.66797,-375.34601 848.724,-375.34601C849.75598,-375.34601 850.67999,-375.53799 851.49597,-375.922C852.33594,-376.306 853.03198,-376.84601 853.58398,-377.54199C854.15997,-378.26199 854.59198,-379.11401 854.88,-380.09799C855.19196,-381.082 855.34796,-382.186 855.34796,-383.41C855.34796,-384.634 855.19196,-385.73801 854.88,-386.72198C854.59198,-387.73001 854.15997,-388.582 853.58398,-389.27802C853.03198,-389.99799 852.336,-390.54999 851.49597,-390.93399C850.67993,-391.31799 849.75598,-391.50998 848.724,-391.51001C847.66797,-391.50998 846.73199,-391.30597 845.91595,-390.89801C845.09998,-390.51398 844.40399,-389.96198 843.828,-389.242C843.27594,-388.54599 842.84399,-387.694 842.53198,-386.686C842.24396,-385.702 842.09998,-384.60999 842.09998,-383.41M861.14398,-383.41C861.14392,-381.27399 860.81995,-379.39001 860.172,-377.758C859.54797,-376.14999 858.68396,-374.79401 857.57996,-373.69C856.47595,-372.60999 855.15601,-371.79401 853.62,-371.242C852.10797,-370.69 850.47595,-370.414 848.724,-370.414C847.01996,-370.414 845.41199,-370.69 843.89996,-371.242C842.388,-371.79401 841.06799,-372.60999 839.94,-373.69C838.81195,-374.79401 837.92395,-376.14999 837.276,-377.758C836.62799,-379.39001 836.30396,-381.27399 836.30396,-383.41S836.63995,-387.418 837.31195,-389.026C837.98401,-390.65799 838.88397,-392.026 840.01196,-393.13C841.164,-394.23401 842.48401,-395.06201 843.97198,-395.61401C845.48401,-396.16599 847.06799,-396.44199 848.724,-396.44199C850.42798,-396.44199 852.03595,-396.16599 853.54797,-395.61401C855.06,-395.06198 856.38,-394.23401 857.508,-393.13S859.52399,-390.65799 860.172,-389.026C860.81995,-387.418 861.14392,-385.54599 861.14398,-383.41" id="imagebot_19"/>
    <path stroke="#d40000" fill="#d40000" d="M873.28003,-396.14999C877,-396.14996 879.85602,-395.48996 881.84802,-394.16998C883.84003,-392.87399 884.83606,-390.73798 884.83606,-387.76199C884.836,-384.76199 883.828,-382.59 881.81201,-381.246C879.79602,-379.92599 876.91602,-379.26599 873.17206,-379.26599L871.40802,-379.26599L871.40802,-370.914L865.79205,-370.914L865.79205,-395.50198C867.01605,-395.74197 868.31201,-395.90997 869.68005,-396.00598C871.04803,-396.10199 872.24805,-396.14996 873.28003,-396.14999M873.64001,-391.362C873.23199,-391.36197 872.82404,-391.34998 872.41602,-391.32599C872.03204,-391.302 871.69604,-391.27798 871.40802,-391.254L871.40802,-384.05399L873.17206,-384.05399C875.11603,-384.05399 876.58002,-384.31799 877.56403,-384.84598C878.54803,-385.37399 879.04004,-386.358 879.04004,-387.798C879.04004,-388.49399 878.90802,-389.06998 878.64404,-389.526C878.40399,-389.98199 878.04401,-390.34198 877.56403,-390.60599C877.10803,-390.89398 876.54401,-391.08597 875.87201,-391.18198C875.20001,-391.30197 874.45605,-391.36197 873.64001,-391.362" id="imagebot_18"/>
    <path stroke="#d40000" fill="#d40000" d="M897.78003,-385.60001C898.78802,-387.30402 899.74805,-389.008 900.66003,-390.71201C901.57202,-392.41602 902.41205,-394.13202 903.18005,-395.86002L909.37201,-395.86002C908.00403,-393.172 906.58801,-390.56802 905.12402,-388.048S902.112,-382.996 900.48004,-380.452L900.48004,-370.91202L894.86401,-370.91202L894.86401,-380.38C893.23206,-382.92401 891.67206,-385.46802 890.18402,-388.01202C888.72003,-390.556 887.30402,-393.172 885.93604,-395.86002L892.45203,-395.86002C893.22003,-394.13202 894.04803,-392.41602 894.93604,-390.71201C895.82404,-389.008 896.77203,-387.30402 897.78003,-385.60001" id="imagebot_17"/>
   </g>
  </g>
  <title label="Layer 1"/>
 </g>
 <metadata>image/svg+xmlOpenclipartDo Not Copy Business Stamp 12012-09-02T15:37:20A slanted solid red business stamp, with the words, "Do Not Copy." Created with Inkscape.https://openclipart.org/detail/172060/do-not-copy-business-stamp-1-by-merlin2525-172060Merlin2525businesscopydodocumentfilefilingnotofficestampwatermark</metadata>
</svg>