<svg width="288" height="153" viewBox="0 0 288 153" xmlns="http://www.w3.org/2000/svg">

 <title/>
 <g id="imagebot_1" label="Layer 1">
  <title label="Layer 1"/>
  <g id="imagebot_2" label="Layer 1" transform="translate(-70.2222 -137.662)">
   <path id="imagebot_12" d="M84.9193,138.061C76.7719,138.073 70.2222,144.642 70.234,152.78999L70.4163,276.45401C70.4273,284.60101 76.9974,291.151 85.1455,291.13901L343.89999,290.75201C352.047,290.741 358.59698,284.17099 358.58499,276.02301L358.40302,152.35899C358.39099,144.21201 351.82199,137.662 343.67401,137.674L84.9193,138.061zM90.2792,144.28999L338.32101,143.91499C345.30499,143.905 350.935,149.52 350.94501,156.502L351.116,271.92499C351.12601,278.91 345.51199,284.54001 338.52899,284.54999L90.4798,284.918C83.4957,284.92801 77.8648,279.314 77.8554,272.33099L77.6852,156.907C77.6751,149.923 83.2895,144.293 90.2722,144.283L90.2792,144.28999z" fill="#339900" stroke-width="0.6303" stroke-linecap="round" stroke="#015a01" stroke-opacity="0.55708" stroke-linejoin="round"/>
   <g transform="rotate(45.244 214.855 214.288) matrix(0.70358 -0.71062 0.71062 0.70358 107.783 -164.952)" id="imagebot_3" fill="#339900" stroke="#339900" label="Layer 1">
    <path fill="#339900" id="imagebot_11" d="M-294.73999,326.64999C-289.95599,326.64999 -286.29099,327.509 -283.746,329.22601C-281.20099,330.91299 -279.92801,333.54999 -279.92801,337.138C-279.92801,339.37701 -280.44901,341.20099 -281.492,342.612C-282.504,343.992 -283.97601,345.08099 -285.90799,345.87799C-285.26401,346.67499 -284.58899,347.595 -283.884,348.638C-283.17899,349.64999 -282.48901,350.72299 -281.814,351.858C-281.10901,352.96201 -280.43399,354.12701 -279.79001,355.354C-279.146,356.54999 -278.548,357.73099 -277.996,358.896L-286.04599,358.896C-286.629,357.853 -287.22699,356.79501 -287.84,355.72198C-288.423,354.64899 -289.03601,353.60599 -289.67999,352.59399C-290.293,351.582 -290.90701,350.63101 -291.51999,349.742C-292.133,348.82199 -292.74701,347.99399 -293.35999,347.258L-296.90201,347.258L-296.90201,358.896L-304.078,358.896L-304.078,327.478C-302.51401,327.17099 -300.90399,326.957 -299.24799,326.83401C-297.561,326.711 -296.05899,326.64999 -294.73999,326.64999M-294.32599,332.76801C-294.84698,332.76801 -295.323,332.78299 -295.75201,332.814C-296.151,332.845 -296.534,332.875 -296.90201,332.90601L-296.90201,341.55399L-294.87799,341.55399C-292.17899,341.55399 -290.24701,341.21701 -289.082,340.54199C-287.91699,339.867 -287.33401,338.71701 -287.33401,337.09201C-287.33401,335.52802 -287.93201,334.42401 -289.12799,333.78C-290.293,333.10501 -292.026,332.76801 -294.32599,332.76801" stroke="#339900"/>
    <path fill="#339900" id="imagebot_10" d="M-273.35001,358.89999L-273.35001,327.022L-251.82201,327.022L-251.82201,333.048L-266.17401,333.048L-266.17401,339.30399L-253.43201,339.30399L-253.43201,345.19199L-266.17401,345.19199L-266.17401,352.87399L-250.76401,352.87399L-250.76401,358.89999L-273.35001,358.89999" stroke="#339900"/>
    <path fill="#339900" id="imagebot_9" d="M-230.96001,359.54001C-236.14301,359.54001 -240.099,358.099 -242.828,355.216C-245.52699,352.33301 -246.87601,348.23901 -246.87601,342.93399C-246.87601,340.297 -246.46201,337.95099 -245.634,335.896C-244.806,333.811 -243.67101,332.06299 -242.23,330.65201C-240.789,329.211 -239.071,328.12201 -237.078,327.38599C-235.08501,326.64999 -232.923,326.28201 -230.592,326.28201C-229.243,326.28201 -228.01601,326.38901 -226.912,326.604C-225.808,326.78799 -224.842,327.01801 -224.01401,327.29401C-223.186,327.539 -222.496,327.79999 -221.944,328.07599C-221.392,328.35199 -220.993,328.56699 -220.748,328.72L-222.81799,334.51599C-223.799,333.995 -224.94901,333.54999 -226.26801,333.18201C-227.556,332.814 -229.028,332.63 -230.68401,332.63C-231.78799,332.63 -232.877,332.814 -233.95,333.18201C-234.993,333.54999 -235.92799,334.14801 -236.756,334.97601C-237.55299,335.77301 -238.19701,336.81601 -238.688,338.104C-239.179,339.392 -239.424,340.95599 -239.424,342.79599C-239.424,344.26801 -239.271,345.64801 -238.964,346.936C-238.627,348.19299 -238.105,349.28201 -237.39999,350.202C-236.664,351.12201 -235.713,351.858 -234.548,352.41C-233.383,352.931 -231.972,353.19199 -230.31599,353.19199C-229.27299,353.19199 -228.338,353.13101 -227.50999,353.008C-226.68201,352.88501 -225.946,352.74701 -225.302,352.59399C-224.658,352.41 -224.091,352.211 -223.60001,351.996C-223.10899,351.78101 -222.66499,351.582 -222.26601,351.39801L-220.28799,357.14801C-221.3,357.76099 -222.726,358.31299 -224.56599,358.80399C-226.40601,359.29501 -228.537,359.54001 -230.96001,359.54001" stroke="#339900"/>
    <path fill="#339900" id="imagebot_8" d="M-215.67,358.89999L-215.67,327.022L-194.142,327.022L-194.142,333.048L-208.494,333.048L-208.494,339.30399L-195.752,339.30399L-195.752,345.19199L-208.494,345.19199L-208.494,352.87399L-193.084,352.87399L-193.084,358.89999L-215.67,358.89999" stroke="#339900"/>
    <path fill="#339900" id="imagebot_7" d="M-187.82001,327.01999L-180.644,327.01999L-180.644,358.89801L-187.82001,358.89801L-187.82001,327.01999" stroke="#339900"/>
    <path fill="#339900" id="imagebot_6" d="M-163.78999,358.89999C-165.047,356.23199 -166.289,353.457 -167.51601,350.57401C-168.743,347.69101 -169.908,344.83899 -171.01199,342.01801S-173.14301,336.49799 -174.09399,333.922C-175.01401,331.34601 -175.811,329.04599 -176.48599,327.022L-168.57401,327.022C-167.961,328.862 -167.30099,330.85501 -166.59599,333.00201L-164.388,339.35001C-163.621,341.466 -162.88499,343.48999 -162.17999,345.422C-161.47501,347.354 -160.815,349.02499 -160.202,350.436C-159.619,349.02499 -158.97501,347.354 -158.27,345.422C-157.534,343.48999 -156.798,341.466 -156.062,339.35001C-155.295,337.23401 -154.55901,335.11801 -153.854,333.00201C-153.118,330.85501 -152.44299,328.862 -151.83,327.022L-144.194,327.022C-144.899,329.04599 -145.71201,331.34601 -146.632,333.922C-147.552,336.49799 -148.564,339.19699 -149.668,342.01801S-151.937,347.69101 -153.164,350.57401C-154.39101,353.457 -155.633,356.23199 -156.89,358.89999L-163.78999,358.89999" stroke="#339900"/>
    <path fill="#339900" id="imagebot_5" d="M-140.02,358.89999L-140.02,327.022L-118.492,327.022L-118.492,333.048L-132.84399,333.048L-132.84399,339.30399L-120.102,339.30399L-120.102,345.19199L-132.84399,345.19199L-132.84399,352.87399L-117.434,352.87399L-117.434,358.89999L-140.02,358.89999" stroke="#339900"/>
    <path fill="#339900" id="imagebot_4" d="M-104.99,353.06C-104.653,353.091 -104.269,353.121 -103.84,353.15201L-102.23,353.15201C-98.642,353.15201 -95.9894,352.24701 -94.272,350.43799C-92.524,348.629 -91.65,346.129 -91.65,342.94C-91.65,339.59698 -92.478,337.06699 -94.134,335.35001C-95.79,333.633 -98.412,332.77399 -102,332.77399C-102.491,332.77399 -102.997,332.789 -103.518,332.82001C-104.039,332.82001 -104.53,332.85101 -104.99,332.91199L-104.99,353.06M-84.244,342.94C-84.244,345.70001 -84.6734,348.10699 -85.532,350.16199C-86.3907,352.21701 -87.6174,353.91901 -89.212,355.26801C-90.776,356.617 -92.6927,357.629 -94.962,358.30399C-97.2314,358.979 -99.7767,359.31601 -102.598,359.31601C-103.886,359.31601 -105.389,359.255 -107.106,359.13199C-108.823,359.04001 -110.51,358.82501 -112.166,358.48801L-112.166,327.43799C-110.51,327.13101 -108.793,326.93201 -107.014,326.84C-105.205,326.71701 -103.656,326.65601 -102.368,326.65601C-99.6387,326.65601 -97.17,326.96301 -94.962,327.57599C-92.7234,328.189 -90.8067,329.155 -89.212,330.474C-87.6174,331.793 -86.3907,333.479 -85.532,335.534C-84.6734,337.58899 -84.244,340.05701 -84.244,342.94" stroke="#339900"/>
   </g>
  </g>
 </g>
 <metadata>image/svg+xmlOpenclipartReceived Business Stamp 12012-09-02T03:43:29A slanted solid green business stamp, with the words, "Received." Created with Inkscape.https://openclipart.org/detail/172032/received-business-stamp-1-by-merlin2525-172032Merlin2525businessdocumentfilefilingofficereceivedstampwatermark</metadata>
</svg>