<svg width="288" height="153" viewBox="0 0 288 153" xmlns="http://www.w3.org/2000/svg">

 <title/>
 <g label="Layer 1" id="imagebot_12">
  <g label="Layer 1" stroke="#d40000" fill="#d40000" transform="rotate(45.7169 144.495 76.97) matrix(0.73631 -0.7519 0.7519 0.73631 -38.3442 585.926)" id="imagebot_13">
   <path stroke-linejoin="round" stroke-opacity="0.55708" stroke="#d40000" stroke-linecap="round" stroke-width="0.6" fill="#d40000" d="M343.94,-287.10001C336.18399,-287.10001 329.94,-280.85602 329.94,-273.10001L329.94,-155.38C329.94,-147.62399 336.18399,-141.38 343.94,-141.38L590.25,-141.38C598.00598,-141.38 604.25,-147.62399 604.25,-155.38L604.25,-273.10001C604.25,-280.85602 598.00598,-287.10001 590.25,-287.10001L343.94,-287.10001zM349.03381,-281.16251L585.15381,-281.16251C591.80182,-281.16251 597.15381,-275.81052 597.15381,-269.16251L597.15381,-159.28252C597.15381,-152.63451 591.80182,-147.28252 585.15381,-147.28252L349.03381,-147.28252C342.3858,-147.28252 337.03381,-152.63451 337.03381,-159.28252L337.03381,-269.16251C337.03381,-275.81052 342.3858,-281.16251 349.03381,-281.16251z" id="imagebot_22"/>
   <g stroke="#d40000" fill="#d40000" id="imagebot_14">
    <path stroke="#d40000" fill="#d40000" d="M400.70999,-261.20999C405.66998,-261.20996 409.478,-260.32996 412.134,-258.56998C414.78998,-256.84198 416.11798,-253.99399 416.11798,-250.02599C416.11795,-246.02599 414.77399,-243.12999 412.086,-241.338C409.39798,-239.57799 405.55798,-238.69798 400.56598,-238.69798L398.21399,-238.69798L398.21399,-227.562L390.72598,-227.562L390.72598,-260.34598C392.358,-260.66595 394.086,-260.88995 395.91,-261.01797C397.73398,-261.14597 399.33398,-261.20996 400.70999,-261.20999M401.19,-254.82599C400.64597,-254.82596 400.10199,-254.81 399.55798,-254.77798C399.04599,-254.74599 398.59799,-254.71399 398.21399,-254.68199L398.21399,-245.08199L400.56598,-245.08199C403.15799,-245.08197 405.10999,-245.43398 406.422,-246.13799C407.73398,-246.84196 408.38998,-248.15399 408.38998,-250.07399C408.38998,-251.00197 408.21396,-251.76999 407.862,-252.37799C407.54196,-252.98598 407.06198,-253.46599 406.422,-253.81799C405.81396,-254.20197 405.06198,-254.45796 404.16599,-254.58598C403.26996,-254.74596 402.27798,-254.82596 401.19,-254.82599" id="imagebot_21"/>
    <path stroke="#d40000" fill="#d40000" d="M455.47,-227.57001C455.11798,-228.72202 454.71799,-229.90601 454.26999,-231.12201C453.85397,-232.33801 453.43799,-233.55402 453.022,-234.77L440.06201,-234.77C439.646,-233.55402 439.21399,-232.33801 438.76599,-231.12201C438.34998,-229.90601 437.966,-228.72202 437.61401,-227.57001L429.83801,-227.57001C431.086,-231.15401 432.26999,-234.466 433.39001,-237.50601S435.59799,-243.41 436.65399,-246.09801C437.742,-248.78601 438.798,-251.33002 439.82199,-253.73001C440.87799,-256.16202 441.966,-258.53 443.086,-260.83401L450.23801,-260.83401C451.32599,-258.53 452.39801,-256.16202 453.45401,-253.73001C454.51001,-251.33002 455.56601,-248.78601 456.62201,-246.09801C457.70999,-243.41 458.814,-240.54601 459.93399,-237.50601S462.23801,-231.15401 463.48599,-227.57001L455.47,-227.57001M446.49399,-253.298C446.33398,-252.81799 446.09399,-252.162 445.77399,-251.33002C445.45398,-250.49799 445.086,-249.53801 444.67001,-248.45001C444.254,-247.36201 443.78998,-246.162 443.27802,-244.85001C442.798,-243.53801 442.302,-242.162 441.79001,-240.72202L451.246,-240.72202C450.73398,-242.162 450.23801,-243.53801 449.758,-244.85001C449.27798,-246.162 448.81396,-247.36201 448.366,-248.45001C447.94998,-249.53801 447.58197,-250.49802 447.26199,-251.33002C446.94199,-252.16199 446.68597,-252.81801 446.49399,-253.298" id="imagebot_20"/>
    <path stroke="#d40000" fill="#d40000" d="M488.39001,-233.28C489.44601,-233.28 490.31,-233.36 490.98203,-233.52C491.686,-233.71201 492.246,-233.952 492.66202,-234.24001C493.078,-234.56 493.366,-234.92799 493.526,-235.34399C493.686,-235.75999 493.76599,-236.22398 493.76602,-236.73599C493.76599,-237.82401 493.254,-238.72 492.23001,-239.424C491.20602,-240.15999 489.44601,-240.944 486.95001,-241.776C485.862,-242.15999 484.77402,-242.592 483.686,-243.07201C482.59802,-243.58398 481.62201,-244.20799 480.758,-244.944C479.89401,-245.71198 479.19,-246.62399 478.646,-247.67999C478.10202,-248.76801 477.83002,-250.08 477.83002,-251.616S478.11801,-254.528 478.694,-255.744C479.27002,-256.992 480.086,-258.048 481.142,-258.91199C482.198,-259.77597 483.478,-260.43201 484.98203,-260.88C486.48602,-261.35995 488.18201,-261.59998 490.07001,-261.60001C492.31,-261.59998 494.246,-261.35995 495.87802,-260.88C497.51001,-260.39996 498.854,-259.87201 499.91,-259.29599L497.75,-253.392C496.82199,-253.87198 495.78201,-254.28798 494.63,-254.64C493.51001,-255.02397 492.15002,-255.21597 490.55002,-255.216C488.758,-255.21597 487.46201,-254.95998 486.66202,-254.448C485.89401,-253.96799 485.51001,-253.216 485.51001,-252.192C485.51001,-251.58398 485.65399,-251.07201 485.94202,-250.65601C486.23001,-250.23997 486.63,-249.85599 487.142,-249.504C487.686,-249.18398 488.29401,-248.87997 488.966,-248.592C489.67001,-248.33598 490.43802,-248.06398 491.27002,-247.776C492.99802,-247.13599 494.50201,-246.496 495.78201,-245.856C497.06201,-245.24799 498.11801,-244.528 498.95001,-243.696C499.814,-242.86398 500.45401,-241.888 500.87,-240.76801C501.28598,-239.64799 501.49399,-238.28799 501.49402,-236.688C501.49399,-233.584 500.40601,-231.168 498.23001,-229.44C496.05402,-227.744 492.77402,-226.896 488.39001,-226.896C486.918,-226.896 485.59,-226.992 484.40601,-227.18401C483.22202,-227.34399 482.16602,-227.552 481.23801,-227.808C480.34201,-228.064 479.55801,-228.336 478.88602,-228.62399C478.246,-228.912 477.702,-229.18401 477.254,-229.44L479.366,-235.392C480.358,-234.84799 481.57401,-234.35201 483.01401,-233.90401C484.48602,-233.48801 486.27802,-233.28 488.39001,-233.28" id="imagebot_19"/>
    <path stroke="#d40000" fill="#d40000" d="M543.46002,-260.82999L543.46002,-254.44598L533.42804,-254.44598L533.42804,-227.56599L525.94,-227.56599L525.94,-254.44598L515.90802,-254.44598L515.90802,-260.82999L543.46002,-260.82999" id="imagebot_18"/>
    <path stroke="#d40000" fill="#d40000" d="M416.26001,-173.66C416.612,-173.62801 417.01199,-173.59599 417.46002,-173.564L419.14001,-173.564C422.884,-173.564 425.65201,-174.508 427.444,-176.396C429.26801,-178.284 430.18002,-180.892 430.18002,-184.22C430.17999,-187.70799 429.31598,-190.34801 427.58801,-192.14S423.12402,-194.828 419.38,-194.828C418.86798,-194.82797 418.34,-194.812 417.79602,-194.78C417.25198,-194.77997 416.74002,-194.748 416.26001,-194.68401L416.26001,-173.66M437.90802,-184.22C437.90796,-181.34 437.45996,-178.828 436.564,-176.68401C435.66797,-174.53999 434.388,-172.76401 432.724,-171.356C431.09201,-169.948 429.09201,-168.892 426.724,-168.188S421.70001,-167.132 418.75601,-167.132C417.41202,-167.132 415.84402,-167.196 414.052,-167.32401C412.26001,-167.42 410.5,-167.644 408.772,-167.996L408.772,-200.39601C410.5,-200.71597 412.29202,-200.92398 414.14801,-201.02C416.03601,-201.14798 417.65201,-201.21198 418.996,-201.21201C421.84402,-201.21198 424.42001,-200.89198 426.724,-200.25201C429.06,-199.61198 431.06,-198.604 432.724,-197.22801S435.668,-194.09201 436.564,-191.94801C437.45996,-189.80402 437.90802,-187.22801 437.90802,-184.22002" id="imagebot_17"/>
    <path stroke="#d40000" fill="#d40000" d="M468.64999,-166.89C466.314,-166.89 464.298,-167.21001 462.60199,-167.85001C460.90598,-168.522 459.49799,-169.43401 458.37799,-170.586C457.28998,-171.77 456.474,-173.162 455.92999,-174.76199C455.41797,-176.394 455.16199,-178.186 455.16199,-180.138L455.16199,-200.826L462.64999,-200.826L462.64999,-180.76199C462.64999,-179.418 462.79398,-178.26601 463.082,-177.306C463.40198,-176.37799 463.81796,-175.61 464.32999,-175.002C464.87396,-174.42599 465.51398,-174.00999 466.25,-173.754C467.01797,-173.498 467.84998,-173.37 468.746,-173.37C470.56998,-173.37 472.04199,-173.92999 473.16199,-175.05C474.314,-176.17 474.88998,-178.07401 474.88998,-180.76199L474.88998,-200.826L482.37799,-200.826L482.37799,-180.138C482.37796,-178.186 482.10596,-176.394 481.56198,-174.76199C481.01797,-173.13 480.186,-171.722 479.06598,-170.53799C477.94598,-169.386 476.522,-168.49001 474.79398,-167.85001S471.01797,-166.89 468.64999,-166.89" id="imagebot_16"/>
    <path stroke="#d40000" fill="#d40000" d="M501.12,-167.57001L501.12,-200.83401L523.58398,-200.83401L523.58398,-194.54601L508.608,-194.54601L508.608,-188.01801L521.90399,-188.01801L521.90399,-181.87401L508.608,-181.87401L508.608,-173.85802L524.68799,-173.85802L524.68799,-167.57001L501.12,-167.57001" id="imagebot_15"/>
   </g>
  </g>
  <title label="Layer 1"/>
 </g>
 <metadata>image/svg+xmlOpenclipartPast Due Business Stamp 12012-09-02T15:41:12A slanted solid red business stamp, with the words, "Past Due." Created with Inkscape.https://openclipart.org/detail/172062/past-due-business-stamp-1-by-merlin2525-172062Merlin2525businessdocumentduefilefilingofficepaststampwatermark</metadata>
</svg>