<svg width="288" height="153" viewBox="0 0 288 153" xmlns="http://www.w3.org/2000/svg">

 <title/>
 <g label="Layer 1" id="imagebot_9">
  <g label="Layer 1" stroke="#0169c9" fill="#0169c9" transform="rotate(44.7621 143.863 76.5942) matrix(0.74289 -0.73919 0.73919 0.74289 -227.17 -61.6066)" id="imagebot_10">
   <path stroke-linejoin="round" stroke-opacity="0.55708" stroke="#0169c9" stroke-linecap="round" stroke-width="0.6" fill="#0169c9" d="M34.801,270.34C27.045,270.34 20.801,276.58401 20.801,284.34L20.801,402.06C20.801,409.81601 27.045,416.06 34.801,416.06L281.11099,416.06C288.867,416.06 295.11099,409.81601 295.11099,402.06L295.11099,284.34C295.11099,276.58401 288.867,270.34 281.11099,270.34L34.801,270.34zM39.8947,276.2775L276.02469,276.2775C282.6727,276.2775 288.02469,281.62949 288.02469,288.2775L288.02469,398.1575C288.02469,404.80548 282.6727,410.1575 276.02469,410.1575L39.8947,410.1575C33.2467,410.1575 27.8947,404.80548 27.8947,398.1575L27.8947,288.2775C27.8947,281.62949 33.2467,276.2775 39.8947,276.2775z" id="imagebot_16"/>
   <g stroke="#0169c9" fill="#0169c9" id="imagebot_11">
    <path stroke="#0169c9" fill="#0169c9" d="M93.43,360.54999C88.022,360.54999 83.894,359.04599 81.046,356.03799C78.23,353.03 76.822,348.758 76.822,343.22198C76.822,340.47 77.254,338.022 78.118,335.87799C78.982,333.702 80.166,331.87799 81.67,330.40598C83.174,328.90198 84.966,327.76599 87.046,326.99799C89.126,326.23004 91.382,325.84598 93.814,325.84598C95.222,325.84604 96.502,325.95804 97.654,326.18198C98.806,326.37402 99.814,326.61404 100.678,326.90198C101.54198,327.15802 102.262,327.43002 102.838,327.71799C103.41397,328.00604 103.82997,328.23004 104.086,328.38998L101.926,334.43799C100.902,333.89401 99.702,333.42999 98.326,333.04599C96.982,332.66202 95.446,332.47003 93.718,332.47C92.566,332.47003 91.43,332.66202 90.31,333.04599C89.222,333.43002 88.246,334.05399 87.382,334.918C86.54999,335.75003 85.878,336.83798 85.366,338.18198C84.85399,339.526 84.59799,341.15799 84.598,343.078C84.59799,344.61398 84.75799,346.05399 85.078,347.39798C85.42999,348.70999 85.97399,349.84598 86.71,350.806C87.47799,351.76599 88.47,352.534 89.686,353.10999C90.902,353.65399 92.374,353.92599 94.102,353.92599C95.19,353.92599 96.166,353.862 97.03,353.73398C97.89398,353.60599 98.662,353.46201 99.334,353.302C100.00598,353.10999 100.598,352.90201 101.11,352.67798C101.62198,352.45401 102.08597,352.246 102.502,352.05399L104.566,358.05399C103.51,358.694 102.022,359.26999 100.102,359.78198S95.958,360.54999 93.43,360.54999" id="imagebot_15"/>
    <path stroke="#0169c9" fill="#0169c9" d="M127.21,343.23001C127.20999,344.862 127.40199,346.33401 127.786,347.646C128.202,348.95801 128.77798,350.09402 129.51401,351.05402C130.28198,351.98203 131.21001,352.702 132.298,353.21402C133.386,353.72601 134.634,353.98203 136.04201,353.98203C137.418,353.98203 138.64999,353.72601 139.73801,353.21402C140.858,352.70203 141.786,351.98203 142.522,351.05402C143.28998,350.09402 143.866,348.95801 144.25,347.646C144.66597,346.33401 144.87396,344.862 144.87399,343.23001C144.87396,341.59802 144.66597,340.12601 144.25,338.814C143.86598,337.47 143.28998,336.33401 142.522,335.40601C141.78598,334.44604 140.858,333.71002 139.73801,333.198C138.64999,332.68604 137.418,332.43005 136.04201,332.43002C134.634,332.43005 133.386,332.70203 132.298,333.246C131.21001,333.75803 130.282,334.49402 129.51401,335.45401C128.77798,336.38205 128.202,337.51801 127.786,338.862C127.40199,340.17401 127.20999,341.63 127.21,343.23001M152.60201,343.23001C152.60197,346.078 152.16997,348.59 151.306,350.76602C150.47397,352.91 149.32201,354.71802 147.85001,356.19C146.37801,357.63 144.618,358.71802 142.57001,359.45401C140.554,360.19 138.37801,360.55801 136.04201,360.55801C133.77,360.55801 131.62601,360.19 129.61,359.45401C127.594,358.71802 125.834,357.63 124.33,356.19C122.826,354.71802 121.642,352.91 120.778,350.76602C119.914,348.59 119.482,346.078 119.482,343.23001S119.93,337.88602 120.826,335.742C121.722,333.56601 122.922,331.742 124.426,330.27002C125.962,328.798 127.722,327.694 129.70599,326.95801C131.722,326.22205 133.834,325.854 136.04201,325.854C138.314,325.85406 140.45799,326.22205 142.474,326.95801C144.49001,327.69406 146.25,328.798 147.754,330.27002S150.442,333.56601 151.306,335.742C152.16997,337.88602 152.60201,340.38202 152.60201,343.23001" id="imagebot_14"/>
    <path stroke="#0169c9" fill="#0169c9" d="M180.31,326.23001C185.27,326.23004 189.078,327.11005 191.73399,328.87C194.39,330.59802 195.718,333.44601 195.718,337.414C195.71797,341.414 194.37399,344.31 191.686,346.10202C188.998,347.862 185.158,348.742 180.166,348.742L177.814,348.742L177.814,359.87802L170.326,359.87802L170.326,327.09402C171.95799,326.77405 173.686,326.55005 175.50999,326.422C177.334,326.29404 178.93401,326.23004 180.31,326.23001M180.78999,332.61401C180.24599,332.61404 179.702,332.63 179.158,332.66202C178.646,332.694 178.19798,332.72601 177.814,332.758L177.814,342.358L180.166,342.358C182.758,342.35803 184.71001,342.00604 186.022,341.302C187.334,340.59802 187.99001,339.28601 187.99001,337.366C187.98997,336.43805 187.81398,335.67001 187.46201,335.06201C187.14198,334.45404 186.66199,333.974 186.022,333.62201C185.41399,333.23804 184.662,332.98203 183.76601,332.854C182.87,332.69403 181.87801,332.61404 180.78999,332.61401" id="imagebot_13"/>
    <path stroke="#0169c9" fill="#0169c9" d="M224.99001,340.29999C226.33401,338.02798 227.61401,335.75598 228.83002,333.48398S231.16602,328.92398 232.19,326.62L240.44601,326.62C238.62201,330.20398 236.73401,333.67599 234.78201,337.03598S230.76601,343.772 228.59001,347.164L228.59001,359.884L221.10201,359.884L221.10201,347.25998C218.92601,343.86798 216.84601,340.47598 214.86201,337.08398C212.91,333.69199 211.022,330.20398 209.19801,326.62L217.88602,326.62C218.91,328.92398 220.01401,331.21198 221.19801,333.48398S223.64601,338.02798 224.99001,340.29999" id="imagebot_12"/>
   </g>
  </g>
  <title label="Layer 1"/>
 </g>
 <metadata>image/svg+xmlOpenclipartCopy Business Stamp 12012-09-02T05:24:09A slanted solid blue business stamp, with the words, "Copy." Created with Inkscape.https://openclipart.org/detail/172040/copy-business-stamp-1-by-merlin2525-172040Merlin2525businesscopydocumentfilefilingofficestampwatermark</metadata>
</svg>