<svg width="288" height="153" viewBox="0 0 288 153" xmlns="http://www.w3.org/2000/svg">

 <title/>
 <g label="Layer 1" id="imagebot_8">
  <g label="Layer 1" stroke="#d40000" fill="#d40000" transform="rotate(45.0704 144.008 76.585) matrix(0.74059 -0.74363 0.74363 0.74059 219.768 323.698)" id="imagebot_9">
   <path stroke-linejoin="round" stroke-opacity="0.55708" stroke="#d40000" stroke-linecap="round" stroke-width="0.6" fill="#d40000" d="M-7.2607,-290.16C-15.0167,-290.16 -21.2607,-283.91599 -21.2607,-276.16L-21.2607,-158.44C-21.2607,-150.68401 -15.0167,-144.44 -7.2607,-144.44L239.0493,-144.44C246.8053,-144.44 253.0493,-150.68401 253.0493,-158.44L253.0493,-276.16C253.0493,-283.91599 246.8053,-290.16 239.0493,-290.16L-7.2607,-290.16zM-2.167,-284.2225L233.963,-284.2225C240.61099,-284.2225 245.963,-278.87051 245.963,-272.2225L245.963,-162.34251C245.963,-155.6945 240.61099,-150.34251 233.963,-150.34251L-2.167,-150.34251C-8.815,-150.34251 -14.167,-155.6945 -14.167,-162.34251L-14.167,-272.2225C-14.167,-278.87051 -8.815,-284.2225 -2.167,-284.2225z" id="imagebot_14"/>
   <g stroke="#d40000" fill="#d40000" id="imagebot_10">
    <path stroke="#d40000" fill="#d40000" d="M65.428,-206.91C65.77999,-206.87801 66.17999,-206.84599 66.628,-206.814L68.308,-206.814C72.052,-206.814 74.82,-207.758 76.612,-209.646C78.436,-211.534 79.348,-214.142 79.348,-217.47C79.34798,-220.95799 78.48398,-223.59801 76.756,-225.39S72.292,-228.078 68.548,-228.078C68.03599,-228.07797 67.508,-228.062 66.964,-228.03C66.41999,-228.02997 65.908,-227.998 65.428,-227.93401L65.428,-206.91M87.076,-217.47C87.07597,-214.59 86.62797,-212.078 85.732,-209.93401C84.83597,-207.78999 83.556,-206.01401 81.892,-204.606C80.26,-203.198 78.26,-202.142 75.892,-201.438S70.868,-200.382 67.924,-200.382C66.58,-200.382 65.012,-200.446 63.22,-200.57401C61.428,-200.67 59.668,-200.894 57.94,-201.246L57.94,-233.64601C59.668,-233.96597 61.46,-234.17398 63.316,-234.27C65.204,-234.39798 66.82,-234.46198 68.164,-234.46201C71.012,-234.46198 73.588,-234.14198 75.892,-233.50201C78.228,-232.86198 80.228,-231.854 81.892,-230.47801S84.836,-227.34201 85.732,-225.19801C86.62797,-223.05402 87.076,-220.47801 87.076,-217.47002" id="imagebot_13"/>
    <path stroke="#d40000" fill="#d40000" d="M117.82,-200.14C115.484,-200.14 113.468,-200.46001 111.772,-201.10001C110.076,-201.772 108.668,-202.68401 107.548,-203.836C106.46,-205.02 105.644,-206.412 105.1,-208.01199C104.58799,-209.644 104.33199,-211.436 104.332,-213.388L104.332,-234.076L111.82,-234.076L111.82,-214.01199C111.81999,-212.668 111.96399,-211.51601 112.252,-210.556C112.57198,-209.62799 112.98798,-208.86 113.5,-208.252C114.04398,-207.67599 114.684,-207.25999 115.42,-207.004C116.18798,-206.748 117.02,-206.62 117.916,-206.62C119.74,-206.62 121.212,-207.17999 122.332,-208.3C123.484,-209.42 124.06,-211.32401 124.06,-214.01199L124.06,-234.076L131.548,-234.076L131.548,-213.388C131.54797,-211.436 131.27597,-209.644 130.73199,-208.01199C130.18797,-206.38 129.356,-204.972 128.23599,-203.78799C127.116,-202.636 125.692,-201.74001 123.964,-201.10001S120.188,-200.14 117.82,-200.14" id="imagebot_12"/>
    <path stroke="#d40000" fill="#d40000" d="M150.28,-200.81L150.28,-234.07401L172.744,-234.07401L172.744,-227.786L157.76801,-227.786L157.76801,-221.258L171.064,-221.258L171.064,-215.114L157.76801,-215.114L157.76801,-207.09801L173.84801,-207.09801L173.84801,-200.81L150.28,-200.81" id="imagebot_11"/>
   </g>
  </g>
  <title label="Layer 1"/>
 </g>
 <metadata>image/svg+xmlOpenclipartDue Business Stamp 12012-09-02T03:54:45A slanted solid red business stamp, with the words, "Due." Created with Inkscape.https://openclipart.org/detail/172038/due-business-stamp-1-by-merlin2525-172038Merlin2525businessdocumentduefilefilingofficestampwatermark</metadata>
</svg>