<svg width="288" height="153" viewBox="0 0 288 153" xmlns="http://www.w3.org/2000/svg">

 <title/>
 <g label="Layer 1" id="imagebot_10">
  <g label="Layer 1" stroke="#f44800" fill="#f44800" transform="rotate(44.5511 143.513 76.2862) matrix(0.74582 -0.73352 0.73352 0.74582 -272.845 352.048)" id="imagebot_11">
   <path stroke-linejoin="round" stroke-opacity="0.55708" stroke="#f44800" stroke-linecap="round" stroke-width="0.6" fill="#f44800" d="M345.45999,18.284C337.70398,18.284 331.45999,24.528 331.45999,32.284L331.45999,150.004C331.45999,157.75999 337.70398,164.004 345.45999,164.004L591.77002,164.004C599.526,164.004 605.77002,157.75999 605.77002,150.004L605.77002,32.284C605.77002,24.528 599.526,18.284 591.77002,18.284L345.45999,18.284zM350.5538,24.2215L586.67377,24.2215C593.32178,24.2215 598.67377,29.5735 598.67377,36.2215L598.67377,146.1015C598.67377,152.7495 593.32178,158.1015 586.67377,158.1015L350.5538,158.1015C343.90579,158.1015 338.5538,152.7495 338.5538,146.1015L338.5538,36.2215C338.5538,29.5735 343.90579,24.2215 350.5538,24.2215z" id="imagebot_18"/>
   <g stroke="#f44800" fill="#f44800" id="imagebot_12">
    <path stroke="#f44800" fill="#f44800" d="M375.92999,101.65C376.28198,101.682 376.68198,101.714 377.13,101.746C377.60999,101.74601 378.16998,101.74601 378.81,101.746C382.55399,101.74601 385.32199,100.80201 387.11398,98.914C388.93799,97.026 389.84998,94.418 389.84998,91.09C389.84995,87.602 388.98596,84.962 387.258,83.17S382.79398,80.482 379.04999,80.482C378.53796,80.48203 378.00998,80.49803 377.466,80.53C376.92197,80.53003 376.41,80.56203 375.92999,80.626L375.92999,101.65M397.578,91.09C397.57797,93.97 397.12997,96.482 396.23398,98.626C395.33795,100.77 394.05798,102.546 392.39398,103.954C390.76199,105.362 388.76199,106.418 386.39398,107.122S381.37,108.178 378.42599,108.178C377.082,108.178 375.51398,108.114 373.72198,107.986C371.92999,107.89 370.16998,107.666 368.44199,107.314L368.44199,74.914C370.16998,74.59403 371.96198,74.38603 373.81799,74.29C375.70599,74.16203 377.32199,74.09803 378.66599,74.098C381.51398,74.09803 384.09,74.41803 386.39398,75.058C388.72998,75.69803 390.72998,76.706 392.39398,78.082S395.33798,81.218 396.23398,83.362C397.12997,85.506 397.578,88.082 397.578,91.09" id="imagebot_17"/>
    <path stroke="#f44800" fill="#f44800" d="M425.06,74.103C430.052,74.10303 433.87601,74.99903 436.53201,76.791C439.18799,78.551 440.51599,81.303 440.51599,85.047C440.51596,87.383 439.97198,89.287 438.884,90.759C437.828,92.199 436.29199,93.335 434.276,94.167C434.94797,94.99901 435.65201,95.959 436.388,97.047C437.12396,98.103 437.84399,99.223 438.548,100.407C439.28397,101.559 439.98801,102.775 440.66,104.055C441.33197,105.303 441.95599,106.535 442.53201,107.751L434.13199,107.751C433.52399,106.663 432.89999,105.559 432.26001,104.439C431.65198,103.319 431.01199,102.231 430.34,101.175C429.69998,100.119 429.06,99.127 428.42001,98.199C427.77997,97.23901 427.14001,96.375 426.5,95.607L422.80399,95.607L422.80399,107.751L415.31601,107.751L415.31601,74.967C416.948,74.64703 418.62799,74.42303 420.35599,74.295C422.116,74.16703 423.68399,74.10303 425.06,74.103M425.492,80.487C424.94797,80.48702 424.452,80.50303 424.004,80.535C423.58798,80.56703 423.18799,80.59903 422.80399,80.631L422.80399,89.655L424.91599,89.655C427.73199,89.65501 429.74799,89.30302 430.96399,88.599C432.17999,87.89502 432.78799,86.695 432.78799,84.999C432.78799,83.367 432.16397,82.215 430.91599,81.543C429.70001,80.83903 427.892,80.487 425.492,80.487" id="imagebot_16"/>
    <path stroke="#f44800" fill="#f44800" d="M481.17999,107.75C480.82797,106.598 480.42795,105.414 479.97998,104.198C479.56396,102.982 479.14795,101.766 478.73199,100.55L465.772,100.55C465.35599,101.766 464.92398,102.982 464.47598,104.198C464.05997,105.414 463.67599,106.598 463.32401,107.75L455.548,107.75C456.79599,104.166 457.97998,100.854 459.09998,97.814S461.30798,91.91 462.36398,89.222C463.452,86.534 464.508,83.99 465.53198,81.59C466.58798,79.158 467.67599,76.79 468.79599,74.486L475.948,74.486C477.03598,76.79 478.108,79.158 479.164,81.59C480.22,83.99 481.276,86.534 482.332,89.222C483.41998,91.91 484.52399,94.774 485.64398,97.814S487.948,104.166 489.19598,107.75L481.17999,107.75M472.20398,82.022C472.04398,82.50202 471.80396,83.158 471.48398,83.99C471.16397,84.82202 470.79596,85.782 470.38,86.87C469.96396,87.958 469.49997,89.158 468.98798,90.47C468.50797,91.782 468.01199,93.158 467.5,94.598L476.95599,94.598C476.44397,93.158 475.948,91.782 475.46799,90.47C474.98798,89.158 474.52396,87.958 474.07599,86.87C473.65997,85.782 473.29196,84.822 472.97198,83.99C472.65198,83.15802 472.39597,82.502 472.20398,82.022" id="imagebot_15"/>
    <path stroke="#f44800" fill="#f44800" d="M505.03,107.75L505.03,74.486L527.302,74.486L527.302,80.774L512.51801,80.774L512.51801,87.734L525.66998,87.734L525.66998,94.022L512.51801,94.022L512.51801,107.75L505.03,107.75" id="imagebot_14"/>
    <path stroke="#f44800" fill="#f44800" d="M568.79999,74.487L568.79999,80.871L558.76801,80.871L558.76801,107.751L551.27997,107.751L551.27997,80.871L541.24799,80.871L541.24799,74.487L568.79999,74.487" id="imagebot_13"/>
   </g>
  </g>
  <title label="Layer 1"/>
 </g>
 <metadata>image/svg+xmlOpenclipartDraft Business Stamp 12012-09-02T05:29:56A slanted solid orange business stamp, with the words, "Draft." Created with Inkscape.https://openclipart.org/detail/172044/draft-business-stamp-1-by-merlin2525-172044Merlin2525businessdocumentdraftfilefilingofficestampwatermark</metadata>
</svg>