<svg width="s0" height="100" xmlns="http://www.w3.org/2000/svg" viewBox="0 0 100 100">
 <g>
   <g>
    <path fill="#cccccc" d="m46.06873,90.375349l33.19275,0l0,8.760288l12.732387,-8.760288l5.361589,0l0,-30.869815l-51.286727,0l0,30.869815zm42.706348,-17.924651c2.400166,0 4.34564,1.245015 4.34564,2.780565c0,1.535877 -1.945857,2.780565 -4.34564,2.780565s-4.345639,-1.245015 -4.345639,-2.780565c0.000255,-1.535713 1.945601,-2.780565 4.345639,-2.780565zm-11.375323,0c2.400038,0 4.345512,1.245015 4.345512,2.780565c0,1.535877 -1.945728,2.780565 -4.345512,2.780565c-2.400166,0 -4.345894,-1.245015 -4.345894,-2.780565c0,-1.535713 1.945728,-2.780565 4.345894,-2.780565zm-11.375578,0c2.400166,0 4.345639,1.245015 4.345639,2.780565c0,1.535877 -1.945728,2.780565 -4.345639,2.780565c-2.400293,0 -4.345512,-1.245015 -4.345512,-2.780565c0,-1.535713 1.945346,-2.780565 4.345512,-2.780565zm-11.375578,0c2.400293,0 4.345767,1.245015 4.345767,2.780565c0,1.535877 -1.945857,2.780565 -4.345767,2.780565c-2.399655,0 -4.345512,-1.245015 -4.345512,-2.780565c0,-1.535713 1.945474,-2.780565 4.345512,-2.780565z"/>
   </g>
  <line y2="37.548077" x2="52.551286" y1="37.291667" x1="7.679491" stroke-width="11" stroke="#cccccc"/>
 </g>
 <g>
  <g fill="none" fill-rule="evenodd">
   <rect width="70.730653" height="70.730653" y="2.581318" x="-6.344125"/>
   <polygon fill="#cccccc" points="22.99748245334132,59.80288370749875 22.99748245334132,15.596221549010835 7.525155250471414,15.596221549010835 7.525155250471414,24.437554532538826 -1.3161761810335548,24.437554532538826 -1.3161761810335548,6.754891324634883 60.57315453121538,6.754891324634883 60.57315453121538,24.437554532538826 51.73182154768739,24.437554532538826 51.73182154768739,15.596221549010835 47.311152296771354,15.596221549010835 49.52148692222937,15.596221549010835 36.25947916948127,15.596221549010835 36.25947916948127,59.80288370749875 45.100823189617415,59.80288370749875 45.100823189617415,68.64421669102674 14.156153608541388,68.64421669102674 14.156153608541388,59.80288370749875"/>
  </g>
 </g>
</svg>